<svg width="130" height="130" viewBox="0 0 130 130" fill="none" xmlns="http://www.w3.org/2000/svg">
<path fill-rule="evenodd" clip-rule="evenodd" d="M46.2857 10.0716L43.6882 3.56969L38.1081 5.80128L40.7057 12.3024L42.0707 11.7567L39.9226 6.38176L42.7826 5.23821L44.9306 10.6131L46.2857 10.0716ZM47.5555 2.38307L49.1614 9.19798L50.5876 8.86178L50.081 6.70883L51.4262 6.39169C52.0799 6.26598 52.6572 5.88599 53.0312 5.33509C53.2045 5.06342 53.3186 4.7583 53.3663 4.43959C53.4139 4.12088 53.394 3.7957 53.3077 3.48521C53.2474 3.17023 53.1226 2.87117 52.9411 2.60681C52.7596 2.34246 52.5254 2.11855 52.2531 1.94918C51.9759 1.78627 51.6686 1.68104 51.3497 1.63977C51.0308 1.59851 50.7068 1.62206 50.3973 1.70904L47.5555 2.38307ZM49.2475 3.17552L50.2855 2.92711C50.625 2.82383 50.9912 2.85557 51.3078 3.01571C51.5855 3.21126 51.782 3.50187 51.8599 3.83255C51.9379 4.16323 51.8919 4.51103 51.7308 4.8101C51.519 5.09718 51.2042 5.291 50.8525 5.35084L49.8186 5.5951L49.2475 3.17552ZM61.5325 5.90812L58.3753 6.2145L58.204 4.45736L61.184 4.16753L61.0747 3.04717L58.0947 3.337L57.9292 1.65605L61.0863 1.34967L60.9696 0.146503L56.3539 0.595303L57.031 7.56423L61.6459 7.11541L61.5325 5.90812ZM68.0354 0.014845C67.5804 -0.0291375 67.1213 0.0248847 66.689 0.17329C66.2566 0.321694 65.8611 0.561039 65.5289 0.875196C64.9035 1.6023 64.5394 2.51782 64.4944 3.47596C64.4493 4.4341 64.7261 5.37975 65.2806 6.16231C65.9183 6.81942 66.7823 7.20883 67.6968 7.25128C68.6113 7.29374 69.5076 6.98606 70.2034 6.39086C70.829 5.66369 71.1933 4.74801 71.2383 3.78969C71.2833 2.83137 71.0064 1.88554 70.4517 1.10291C70.1499 0.759534 69.7781 0.484765 69.3614 0.297088C68.9446 0.109412 68.4925 0.0131823 68.0354 0.014845ZM67.9791 1.23623C68.2426 1.23966 68.5014 1.30616 68.7338 1.43021C68.9663 1.55425 69.1656 1.73222 69.3152 1.94918C69.623 2.48699 69.7709 3.10149 69.7415 3.7205C69.7122 4.33951 69.5069 4.9373 69.1496 5.44358C68.9736 5.63745 68.757 5.79004 68.5153 5.89048C68.2735 5.99093 68.0126 6.03674 67.7511 6.02464C67.4896 6.01254 67.234 5.94283 67.0025 5.82048C66.7711 5.69814 66.5695 5.52617 66.4122 5.31687C66.1029 4.77953 65.9541 4.16477 65.9835 3.54543C66.0128 2.92609 66.219 2.32815 66.5777 1.82248C66.7466 1.62014 66.9616 1.46131 67.2046 1.3593C67.4476 1.25729 67.7115 1.21509 67.9742 1.23623H67.9791ZM79.4719 6.54819C79.5396 6.25969 79.5414 5.95963 79.4772 5.67033C79.413 5.38102 79.2845 5.10991 79.1011 4.87717C78.6906 4.37431 78.1079 4.04202 77.4662 3.9448L76.1335 3.68065L76.41 2.28619L79.5357 2.90558L79.7708 1.72064L75.2081 0.816392L73.848 7.68429L76.6625 8.24241C77.2845 8.39494 77.9413 8.304 78.4985 7.98819C78.7555 7.83341 78.9756 7.62436 79.1435 7.37564C79.3113 7.12692 79.4229 6.84451 79.4703 6.54819H79.4719ZM75.5119 6.82227L75.9175 4.77533L76.9356 4.97737C77.2728 5.02165 77.5848 5.17934 77.8205 5.42452C77.9127 5.53911 77.9771 5.67354 78.0086 5.81722C78.04 5.96091 78.0377 6.10993 78.0018 6.25258C77.982 6.39788 77.928 6.53639 77.844 6.65662C77.7601 6.77686 77.6488 6.87537 77.5192 6.944C77.2093 7.08035 76.8623 7.10751 76.535 7.02102L75.5119 6.82227ZM84.0015 2.84183L81.6937 9.4522L83.0769 9.93493L83.8045 7.85072L85.1082 8.30864C85.7271 8.5543 86.4181 8.54417 87.0295 8.28049C87.3213 8.14509 87.5813 7.94976 87.7926 7.70724C88.004 7.46471 88.1619 7.18039 88.2563 6.87279C88.375 6.57484 88.4306 6.25551 88.4196 5.93496C88.4087 5.61441 88.3313 5.29962 88.1925 5.0105C88.0463 4.72404 87.8439 4.47005 87.5972 4.26373C87.3506 4.05742 87.0649 3.90302 86.7572 3.8098L84.0015 2.84183ZM85.0023 4.42008L86.0097 4.77202C86.3513 4.86722 86.6431 5.09055 86.8242 5.39554C86.9521 5.70967 86.961 6.05972 86.8491 6.37992C86.7372 6.70011 86.5123 6.96843 86.2166 7.13446C85.8834 7.26267 85.5135 7.25702 85.1844 7.11872L84.182 6.76847L85.0023 4.42008ZM92.7618 14.115L94.15 14.8205L95.1508 7.47561L93.6161 6.69559L88.2786 11.8345L89.6188 12.516L90.8604 11.2441L93.0524 12.3595L92.7618 14.115ZM93.7402 8.2606L93.7701 8.27635L93.2734 11.2391L91.6435 10.4111L93.7402 8.2606ZM103.65 16.9784L107.789 15.9383L106.487 14.9571L102.837 15.9185L102.806 15.8953L104.589 13.5271L103.45 12.6692L101.667 15.0374L101.636 15.0134L101.554 11.2416L100.229 10.248L100.373 14.5406L95.8875 15.7413L97.2897 16.7979L101.058 15.7851L101.088 15.8083L99.2383 18.266L100.377 19.1239L102.227 16.667L102.259 16.6902L102.315 20.5821L103.748 21.6586L103.65 16.9784ZM109.486 25.9628L107.301 23.6633L108.58 22.446L110.642 24.6164L111.457 23.8405L109.396 21.671L110.619 20.5117L112.805 22.8112L113.68 21.9832L110.485 18.6213L105.413 23.4447L108.607 26.8066L109.486 25.9628ZM114.008 33.9626L119.72 29.9118L118.872 28.7169L116.554 30.3622L114.733 27.7895L117.051 26.1441L116.204 24.9493L110.493 29.0009L111.34 30.1958L113.745 28.4884L115.566 31.0611L113.161 32.7677L114.008 33.9626ZM117.674 40.8123L118.321 42.1215L124.595 39.0196L123.97 37.7543L118.315 37.0049L118.289 36.9528L122.538 34.8528L121.89 33.5436L115.616 36.6447L116.242 37.9108L121.893 38.6619L121.918 38.714L117.674 40.8123ZM121.99 48.967L121.01 45.9487L122.69 45.4039L123.614 48.2507L124.684 47.903L123.765 45.0561L125.37 44.5344L126.35 47.5527L127.498 47.1792L126.066 42.7682L119.41 44.9294L120.842 49.3413L121.99 48.967ZM123.006 65.7716L130 65.5058L129.944 64.0417L127.104 64.1494L126.984 60.9978L129.825 60.8902L129.768 59.4262L122.774 59.692L122.831 61.156L125.778 61.0442L125.897 64.1949L122.95 64.3076L123.006 65.7716ZM122.36 73.4095L122.183 74.9572L129.413 73.3325L129.609 71.621L122.937 68.4106L122.766 69.9052L124.393 70.6281L124.113 73.0725L122.36 73.4095ZM128.186 72.2834V72.3173L125.235 72.8837L125.443 71.0661L128.186 72.2834ZM120.334 82.5024L127.105 84.2728L127.475 82.8552L125.035 82.2176C124.823 82.0313 124.674 81.7835 124.609 81.5088C124.539 81.1994 124.547 80.8776 124.633 80.5722C124.67 80.3862 124.747 80.2103 124.857 80.056C124.968 79.9017 125.109 79.7725 125.273 79.6771C125.629 79.5009 126.04 79.4712 126.417 79.5943L128.205 80.0613L128.576 78.6437L126.652 78.1411C126.321 78.0382 125.973 78.0035 125.628 78.0393C125.284 78.075 124.95 78.1804 124.648 78.3489C124.101 78.7159 123.7 79.2627 123.513 79.8945C123.327 80.5263 123.368 81.2034 123.628 81.8085L123.619 81.8458L120.704 81.084L120.334 82.5024ZM117.487 89.6585L116.903 90.9966L123.317 93.7979L123.882 92.5037L120.81 87.6952L120.833 87.6413L125.177 89.5384L125.761 88.1995L119.347 85.3981L118.782 86.6924L121.845 91.4992L121.822 91.5531L117.487 89.6585ZM112.199 98.7861L118.091 102.565L118.881 101.332L116.489 99.7963L118.19 97.1416L120.583 98.676L121.374 97.443L115.482 93.6638L114.691 94.8976L117.174 96.4899L115.473 99.1447L112.989 97.5523L112.199 98.7861ZM107.315 104.659L106.285 105.827L113.145 108.632L114.283 107.34L110.641 100.885L109.648 102.013L110.567 103.537L108.941 105.382L107.315 104.659ZM112.738 107.069L112.714 107.094L109.971 105.871L111.181 104.499L112.738 107.069ZM101.71 111.491L104.118 109.421L105.267 110.761L102.996 112.71L103.728 113.564L106 111.615L107.099 112.897L104.691 114.967L105.477 115.884L108.997 112.864L104.444 107.55L100.924 110.57L101.71 111.491ZM95.9562 114.039L99.1133 118.895L97.3932 120.014L98.0554 121.027L102.719 117.994L102.061 116.981L100.345 118.096L97.1888 113.24L95.9562 114.039ZM89.3804 117.455C88.6915 117.749 88.1266 118.274 87.7836 118.939C87.471 119.572 87.4193 120.303 87.6396 120.974L88.9441 120.361C88.8712 120.008 88.924 119.64 89.0931 119.321C89.2765 118.994 89.562 118.735 89.906 118.586C90.1357 118.468 90.3907 118.409 90.6486 118.413C90.9065 118.418 91.1594 118.485 91.3852 118.61C91.9249 118.93 92.3441 119.419 92.5781 120.001C92.8738 120.551 92.9786 121.185 92.876 121.801C92.8273 122.052 92.7181 122.288 92.5579 122.487C92.3976 122.687 92.1912 122.844 91.9564 122.945C91.6171 123.113 91.2308 123.16 90.8613 123.079C90.4974 122.991 90.1745 122.781 89.9457 122.485L88.6412 123.098C89.0138 123.711 89.6137 124.152 90.31 124.324C91.0415 124.504 91.8131 124.416 92.4854 124.076C92.9016 123.904 93.2756 123.644 93.5813 123.314C93.887 122.984 94.1173 122.59 94.256 122.162C94.4551 121.217 94.3415 120.234 93.9323 119.359C93.5231 118.485 92.8406 117.768 91.9878 117.316C91.5689 117.149 91.1188 117.075 90.6685 117.099C90.2183 117.124 89.7788 117.246 89.3804 117.457V117.455ZM81.418 124.411L82.5769 124.067C82.8906 123.952 83.2361 123.959 83.5446 124.087C83.6815 124.155 83.8018 124.252 83.8968 124.371C83.9919 124.491 84.0593 124.63 84.0942 124.779C84.1449 124.923 84.1634 125.077 84.1484 125.229C84.1334 125.382 84.0852 125.529 84.0073 125.661C83.8202 125.936 83.5365 126.13 83.2126 126.206L82.0537 126.55L81.418 124.411ZM82.0695 123.078L81.1068 123.364L80.3866 120.942L78.9918 121.356L80.9876 128.063L83.7399 127.244C84.3961 127.085 84.967 126.681 85.3367 126.116C85.4969 125.855 85.5973 125.561 85.631 125.256C85.6646 124.951 85.6305 124.643 85.5312 124.352C85.4101 123.911 85.1416 123.525 84.7705 123.258C84.4025 122.994 83.9606 122.855 83.5082 122.859L84.4965 119.712L82.9436 120.174L82.0695 123.078ZM69.1562 122.694C68.408 122.722 67.6931 123.01 67.1348 123.509C66.6167 123.989 66.3076 124.653 66.2739 125.358L67.7109 125.252C67.7688 124.896 67.9495 124.571 68.2217 124.334C68.5095 124.093 68.8684 123.954 69.2432 123.937C69.4996 123.91 69.7589 123.946 69.9983 124.042C70.2377 124.138 70.45 124.291 70.6164 124.488C71.006 124.98 71.2232 125.586 71.2348 126.214C71.3136 126.834 71.1852 127.462 70.8697 128.002C70.7345 128.219 70.5483 128.4 70.3273 128.529C70.1063 128.658 69.8572 128.731 69.6016 128.742C69.2268 128.782 68.8498 128.689 68.5366 128.479C68.2234 128.269 67.9939 127.956 67.8881 127.594L66.4511 127.7C66.5815 128.405 66.9841 129.03 67.5719 129.439C68.1915 129.868 68.944 130.061 69.6935 129.983C70.1437 129.971 70.5859 129.861 70.9895 129.661C71.393 129.461 71.7481 129.175 72.0303 128.824C72.5537 128.013 72.7989 127.053 72.7289 126.09C72.6588 125.128 72.2773 124.214 71.642 123.487C71.3107 123.182 70.917 122.952 70.4883 122.814C70.0595 122.676 69.6059 122.633 69.1587 122.687L69.1562 122.694ZM56.1602 122.418L54.6131 122.093L52.6 124.174L52.5627 124.166L51.5653 121.453L49.9329 121.11L51.4295 124.984L51.4221 125.017L48.4661 127.956L50.0662 128.292L52.0528 126.131L52.0909 126.139L53.0246 128.913L54.7099 129.267L53.2597 125.433L53.268 125.395L56.1602 122.418ZM42.3521 126.07C42.7721 126.25 43.2258 126.338 43.6827 126.328C44.1395 126.319 44.589 126.211 45.001 126.013C45.8178 125.511 46.4429 124.749 46.7767 123.85C47.1105 122.951 47.1337 121.966 46.8428 121.052C46.4353 120.232 45.7309 119.598 44.8729 119.279C44.0149 118.96 43.0676 118.98 42.2238 119.335C41.4068 119.837 40.7815 120.599 40.4475 121.498C40.1135 122.398 40.0902 123.383 40.3812 124.297C40.5641 124.716 40.8345 125.091 41.1743 125.397C41.5141 125.703 41.9155 125.932 42.3513 126.07H42.3521ZM42.7776 124.924C42.5276 124.84 42.3014 124.698 42.1177 124.509C41.9341 124.32 41.7984 124.09 41.7222 123.837C41.5919 123.231 41.6373 122.601 41.853 122.02C42.0687 121.439 42.4458 120.932 42.9399 120.558C43.1664 120.427 43.4189 120.348 43.6795 120.327C43.9401 120.305 44.2023 120.341 44.4473 120.432C44.6924 120.523 44.9144 120.667 45.0974 120.854C45.2804 121.041 45.4199 121.266 45.506 121.513C45.6363 122.119 45.5905 122.75 45.374 123.33C45.1575 123.911 44.7793 124.418 44.2842 124.79C44.0615 124.932 43.8084 125.017 43.5458 125.04C43.2833 125.064 43.019 125.024 42.7751 124.924H42.7776ZM35.7879 123.13L39.1818 117.003L37.9004 116.293L36.8309 118.224L35.6215 117.553C35.0532 117.206 34.3705 117.1 33.7234 117.256C33.4125 117.34 33.1229 117.489 32.8734 117.693C32.6239 117.897 32.4203 118.151 32.2757 118.439C32.109 118.713 32.0009 119.018 31.9581 119.336C31.9154 119.654 31.9389 119.977 32.0273 120.285C32.1231 120.592 32.2799 120.876 32.4881 121.121C32.6963 121.366 32.9518 121.567 33.2392 121.711L35.7879 123.13ZM35.0686 121.405L34.1348 120.889C33.8144 120.736 33.5645 120.467 33.437 120.136C33.3634 119.804 33.4137 119.457 33.5784 119.16C33.7431 118.863 34.0108 118.636 34.331 118.523C34.6809 118.453 35.0443 118.521 35.3451 118.713L36.2746 119.228L35.0686 121.405ZM25.3836 116.678C25.7318 116.974 26.1393 117.192 26.5787 117.318C27.0182 117.444 27.4794 117.474 27.9315 117.407C28.8603 117.168 29.6823 116.624 30.2666 115.864C30.851 115.103 31.164 114.169 31.1557 113.209C31.0084 112.305 30.5223 111.492 29.7965 110.934C29.0707 110.375 28.1596 110.115 27.2486 110.205C26.3192 110.443 25.4962 110.986 24.9111 111.747C24.326 112.508 24.0124 113.443 24.0203 114.402C24.0714 114.857 24.2192 115.295 24.4536 115.687C24.688 116.08 25.0038 116.418 25.3795 116.678H25.3836ZM26.1286 115.708C25.9145 115.555 25.7402 115.352 25.6203 115.117C25.5005 114.882 25.4387 114.622 25.4399 114.359C25.4945 113.741 25.7241 113.152 26.1016 112.661C26.4792 112.17 26.9891 111.797 27.5714 111.585C27.8266 111.527 28.0915 111.526 28.3473 111.582C28.603 111.638 28.8432 111.749 29.0508 111.909C29.2583 112.069 29.4281 112.272 29.548 112.505C29.6679 112.737 29.7349 112.994 29.7443 113.256C29.69 113.873 29.4601 114.462 29.0818 114.953C28.7035 115.444 28.1926 115.816 27.6095 116.026C27.3552 116.095 27.0881 116.103 26.8304 116.047C26.5728 115.992 26.3321 115.876 26.1286 115.708ZM24.9143 107.109L19.2854 100.912L14.1061 105.621L15.0911 106.705L19.3765 102.809L20.7142 104.28L16.4288 108.177L17.4138 109.261L21.6992 105.365L23.0369 106.837L18.7515 110.733L19.7366 111.818L24.9143 107.109ZM14.0349 95.2081L15.76 97.8711L14.2782 98.8317L12.6508 96.3194L11.7064 96.9313L13.3338 99.4436L11.9174 100.362L10.1924 97.6989L9.17916 98.3564L11.7005 102.248L17.5736 98.4392L15.0522 94.5473L14.0349 95.2081ZM12.9786 90.6256L7.76368 93.1305L6.44833 90.388L5.35485 90.913L7.30674 94.9804L13.616 91.9514L12.9786 90.6256ZM3.01889 84.9236C3.13653 85.3654 3.34735 85.7769 3.63719 86.1304C3.92703 86.4839 4.28918 86.7712 4.69927 86.9731C5.59889 87.3055 6.58382 87.3271 7.49714 87.0344C8.41046 86.7418 9.19957 86.1518 9.73873 85.3584C10.1314 84.5313 10.1945 83.5856 9.91516 82.7136C9.63577 81.8416 9.03488 81.1088 8.23468 80.6641C7.33506 80.3318 6.35009 80.3102 5.43678 80.6028C4.52346 80.8954 3.73434 81.4855 3.19519 82.2788C2.97906 82.6816 2.85152 83.126 2.82112 83.5822C2.79071 84.0383 2.85814 84.4957 3.01889 84.9236ZM4.18272 84.551C4.09397 84.3029 4.066 84.037 4.10115 83.7758C4.13629 83.5146 4.23353 83.2656 4.38471 83.0498C4.78053 82.5731 5.30422 82.2194 5.89416 82.0303C6.48411 81.8412 7.11576 81.8246 7.71482 81.9824C7.95784 82.0797 8.1764 82.2294 8.35485 82.421C8.5333 82.6125 8.66724 82.8412 8.74711 83.0905C8.82698 83.3399 8.8508 83.6038 8.81688 83.8634C8.78296 84.1231 8.69213 84.372 8.55088 84.5924C8.1552 85.0697 7.63106 85.4235 7.04056 85.6119C6.45006 85.8003 5.81796 85.8155 5.2191 85.6556C4.97073 85.5677 4.74703 85.4215 4.56672 85.2293C4.38641 85.0372 4.25473 84.8046 4.18272 84.551ZM6.99716 63.2021L0 63.3404L0.118376 69.3512L7.11635 69.2121L7.08737 67.7423L1.30208 67.8574L1.24082 64.7771L7.02611 64.662L6.99716 63.2021ZM0.245846 59.2995L7.1892 60.1822L7.37379 58.729L5.18434 58.4499L5.359 57.0786C5.41436 56.7535 5.40513 56.4207 5.33184 56.0992C5.25855 55.7776 5.12262 55.4737 4.93185 55.2047C4.73862 54.9465 4.49315 54.732 4.21146 54.575C3.92977 54.4181 3.6182 54.3223 3.29702 54.2939C2.98092 54.2398 2.65703 54.2519 2.34584 54.3294C2.03466 54.4069 1.74294 54.5482 1.48915 54.7443C1.23929 54.9472 1.033 55.1985 0.882641 55.483C0.732285 55.7676 0.640993 56.0797 0.614211 56.4005L0.245846 59.2995ZM1.586 57.992L1.72011 56.9329C1.74245 56.5789 1.90013 56.2471 2.16047 56.0063C2.44107 55.8152 2.78184 55.7332 3.11862 55.7759C3.4554 55.8186 3.76498 55.983 3.98904 56.2381C4.18339 56.5377 4.25455 56.9009 4.18769 57.2517L4.0536 58.3058L1.586 57.992ZM2.39475 47.233C2.24823 47.6661 2.19605 48.1255 2.24174 48.5804C2.28743 49.0353 2.42991 49.4752 2.65962 49.8704C3.22498 50.6451 4.03323 51.2084 4.95565 51.4704C5.87806 51.7324 6.8616 51.6781 7.7496 51.3162C8.53482 50.8452 9.11115 50.0927 9.36135 49.2117C9.61154 48.3307 9.51679 47.3875 9.09638 46.5739C8.53121 45.7989 7.72296 45.2355 6.80048 44.9735C5.87799 44.7115 4.89438 44.7659 4.00642 45.1281C3.60312 45.3435 3.25061 45.6429 2.97261 46.0059C2.69461 46.369 2.49759 46.7874 2.39475 47.233ZM3.57101 47.5643C3.63407 47.3089 3.75729 47.0723 3.93038 46.8742C4.10346 46.6761 4.32139 46.5224 4.56599 46.4257C5.15951 46.2484 5.79126 46.2442 6.38712 46.4134C6.98298 46.5827 7.51822 46.9184 7.93005 47.3813C8.07884 47.5967 8.17824 47.8423 8.22114 48.1006C8.26403 48.3589 8.24937 48.6234 8.17819 48.8754C8.10702 49.1273 7.98111 49.3605 7.80942 49.5581C7.63774 49.7557 7.42454 49.913 7.18506 50.0186C6.59141 50.1964 5.9593 50.2004 5.36344 50.0302C4.76759 49.86 4.23291 49.5227 3.82264 49.0581C3.66534 48.8475 3.56073 48.6023 3.51753 48.343C3.47432 48.0837 3.49379 47.8178 3.57432 47.5676L3.57101 47.5643ZM11.9779 38.6436L10.6766 41.5418L9.06659 40.8173L10.2942 38.0847L9.26773 37.6235L8.04014 40.356L6.50049 39.663L7.80174 36.7648L6.70082 36.268L4.79693 40.4976L11.1799 43.3702L13.0838 39.1396L11.9779 38.6436ZM12.8528 32.1475L11.5913 27.9244L10.7114 29.3255L11.8454 33.0923L11.8247 33.1255L9.31575 31.5522L8.53597 32.7943L14.462 36.5205L15.2409 35.2784L12.6376 33.6413L12.6583 33.6082L16.6655 33.0104L17.639 31.4619L12.8528 32.1475ZM21.1156 27.166L16.6879 23.4314L18.0123 21.8623L17.0894 21.0839L13.5034 25.3392L14.4272 26.1176L15.7459 24.5518L20.1736 28.2863L21.1156 27.166ZM27.136 21.1137L28.2833 20.0612L21.7596 16.5453L20.4907 17.7046L23.4276 24.5087L24.536 23.4927L23.7827 21.8805L25.5955 20.2186L27.136 21.1137ZM22.0038 18.1426L22.0287 18.1194L24.6262 19.6273L23.2786 20.8628L22.0038 18.1426Z" fill="#F7C7A1"/>
</svg>
