<svg width="7" height="12" viewBox="0 0 7 12" fill="none" xmlns="http://www.w3.org/2000/svg">
<path d="M4.64774 5.96017L0.190257 1.50249C0.0675197 1.38004 0 1.21633 0 1.04177C0 0.867105 0.0675197 0.703487 0.190257 0.580847L0.580846 0.190451C0.70339 0.0676169 0.867201 0 1.04177 0C1.21633 0 1.37995 0.0676169 1.50259 0.190451L6.80993 5.4977C6.93306 5.62073 7.00048 5.78512 7 5.95988C7.00048 6.13541 6.93316 6.29961 6.80993 6.42274L1.50753 11.7248C1.38489 11.8477 1.22127 11.9153 1.04661 11.9153C0.872045 11.9153 0.708427 11.8477 0.58569 11.7248L0.195198 11.3345C-0.0588984 11.0804 -0.0588984 10.6667 0.195198 10.4127L4.64774 5.96017Z" fill="#181919"/>
</svg>
