<svg width="7" height="12" viewBox="0 0 7 12" fill="none" xmlns="http://www.w3.org/2000/svg">
<path d="M2.35226 5.96017L6.80974 1.50249C6.93248 1.38004 7 1.21633 7 1.04177C7 0.867105 6.93248 0.703487 6.80974 0.580847L6.41915 0.190451C6.29661 0.0676169 6.1328 0 5.95823 0C5.78367 0 5.62005 0.0676169 5.49741 0.190451L0.190066 5.4977C0.0669414 5.62073 -0.000481767 5.78512 2.59534e-06 5.95988C-0.000481767 6.13541 0.0668445 6.29961 0.190066 6.42274L5.49247 11.7248C5.61511 11.8477 5.77873 11.9153 5.95339 11.9153C6.12795 11.9153 6.29157 11.8477 6.41431 11.7248L6.8048 11.3345C7.0589 11.0804 7.0589 10.6667 6.8048 10.4127L2.35226 5.96017Z" fill="#181919"/>
</svg>
