<svg width="10" height="10" viewBox="0 0 10 10" fill="none" xmlns="http://www.w3.org/2000/svg">
<path d="M6.10138 5.00102L9.84024 1.26199C9.94309 1.15907 9.99984 1.02175 10 0.875326C10 0.728822 9.94325 0.591343 9.84024 0.488578L9.5126 0.161018C9.40959 0.0578468 9.27228 0.00134277 9.12569 0.00134277C8.97935 0.00134277 8.84203 0.0578468 8.73902 0.161018L5.00016 3.8998L1.26114 0.161018C1.15829 0.0578468 1.02089 0.00134277 0.87439 0.00134277C0.728049 0.00134277 0.59065 0.0578468 0.487805 0.161018L0.16 0.488578C-0.0533333 0.701912 -0.0533333 1.0489 0.16 1.26199L3.89894 5.00102L0.16 8.73988C0.0570732 8.84297 0.000406504 8.98029 0.000406504 9.12671C0.000406504 9.27313 0.0570732 9.41045 0.16 9.51346L0.487724 9.84102C0.590569 9.94411 0.728049 10.0007 0.874309 10.0007C1.02081 10.0007 1.15821 9.94411 1.26106 9.84102L5.00008 6.10216L8.73894 9.84102C8.84195 9.94411 8.97927 10.0007 9.12561 10.0007C9.27203 10.0007 9.40951 9.94411 9.51252 9.84102L9.84016 9.51346C9.94301 9.41053 9.99976 9.27313 9.99976 9.12671C9.99976 8.98029 9.94301 8.84297 9.84016 8.73996L6.10138 5.00102Z" fill="#909A9D"/>
</svg>
