<svg width="30" height="49" viewBox="0 0 30 49" fill="none" xmlns="http://www.w3.org/2000/svg">
<path d="M8.03765 0.0178099C10.5423 0.0178099 13.0481 -0.0292267 15.5514 0.0295809C19.1398 0.117522 22.2967 1.42377 24.9793 3.87492C27.7207 6.37782 29.3856 9.51666 29.8561 13.2576C30.4606 18.0577 29.1598 22.2851 25.9623 25.8478C23.7033 28.363 19.6011 30.7594 15.7195 30.7594C15.6714 30.7594 15.6714 30.8081 15.2881 30.3702C13.7546 28.8126 12.3171 27.4013 10.8314 25.7953C8.48327 23.3616 7.28524 22.0962 4.93711 19.6628C3.30778 17.9593 1.63053 16.3044 0.00120294 14.601C0.00120294 14.5524 0.00120294 12.5837 0.00120294 12.5082C0.00120294 12.4542 -0.00150367 12.3301 0.00120294 12.2649C0.00485802 8.25098 0.00485802 4.06102 0.00120294 0.0486587V8.53807e-07C2.62791 0.00690834 5.41123 0.0168705 8.03765 0.0131113V0.0178099Z" fill="#909A9D"/>
<path d="M29.9995 48.6695C29.8557 48.6661 29.8404 48.6647 29.7709 48.6647C25.99 48.6647 22.2094 48.666 18.4287 48.6683C18.3676 48.6721 18.2107 48.6695 18.2107 48.6695C18.1005 48.5388 18.1416 48.5829 18.1005 48.5388C15.3616 45.7582 12.6201 42.9802 9.87557 40.2048L9.44183 39.7639C7.04708 37.3339 5.53892 35.8104 3.16769 33.412C1.6015 31.828 0.150035 30.3608 0.000732422 30.2082V17.8613L29.9995 48.6695Z" fill="#909A9D"/>
<path d="M0.000732422 33.1943L15.0481 48.6712C10.1536 48.6712 4.89497 48.6673 0.000732422 48.6712C0.000732422 48.6712 0.000732422 48.6226 0.000732422 48.3109C0.00714038 43.2548 0.00364723 38.2485 0.000732422 33.1943Z" fill="#5D6668"/>
</svg>
