<svg width="24" height="24" viewBox="0 0 24 24" fill="none" xmlns="http://www.w3.org/2000/svg">
<path d="M12.004 6.35094C8.88455 6.35094 6.35913 8.8791 6.35913 11.9958C6.35913 15.1152 8.8873 17.6406 12.004 17.6406C15.1234 17.6406 17.6488 15.1124 17.6488 11.9958C17.6488 8.87635 15.1206 6.35094 12.004 6.35094ZM12.004 15.6597C9.97905 15.6597 8.34005 14.0198 8.34005 11.9958C8.34005 9.97177 9.97996 8.33185 12.004 8.33185C14.028 8.33185 15.6679 9.97177 15.6679 11.9958C15.6688 14.0198 14.0289 15.6597 12.004 15.6597Z" fill="black" stroke="black" stroke-width="0.3"/>
<path d="M16.5359 1.0691C14.5119 0.974688 9.49862 0.979271 7.47279 1.0691C5.69263 1.15252 4.12238 1.58244 2.85646 2.84836C0.740792 4.96402 1.01121 7.81486 1.01121 11.9958C1.01121 16.2748 0.772875 19.0596 2.85646 21.1432C4.98037 23.2662 7.87246 22.9885 12.0039 22.9885C16.2425 22.9885 17.7055 22.9912 19.2043 22.4109C21.242 21.6199 22.7802 19.7984 22.9305 16.5269C23.0259 14.5019 23.0204 9.48961 22.9305 7.46378C22.749 3.60186 20.6765 1.25977 16.5359 1.0691ZM19.7396 19.7434C18.3527 21.1304 16.4286 21.0066 11.9773 21.0066C7.39396 21.0066 5.55604 21.0744 4.21496 19.7297C2.67037 18.1924 2.94996 15.7239 2.94996 11.9811C2.94996 6.91652 2.43021 3.26911 7.51312 3.00877C8.68096 2.96752 9.02471 2.95377 11.9645 2.95377L12.0057 2.98127C16.8906 2.98127 20.7232 2.46977 20.9533 7.55177C21.0055 8.71136 21.0175 9.05969 21.0175 11.9949C21.0165 16.525 21.1027 18.3739 19.7396 19.7434Z" fill="black" stroke="black" stroke-width="0.3"/>
<path d="M17.8723 7.44727C18.6008 7.44727 19.1914 6.8567 19.1914 6.12818C19.1914 5.39967 18.6008 4.8091 17.8723 4.8091C17.1438 4.8091 16.5532 5.39967 16.5532 6.12818C16.5532 6.8567 17.1438 7.44727 17.8723 7.44727Z" fill="black"/>
</svg>
