<svg width="22" height="22" viewBox="0 0 22 22" fill="none" xmlns="http://www.w3.org/2000/svg">
<path d="M11 0C4.93468 0 0 4.93468 0 11C0 17.0653 4.93468 22 11 22C12.9343 22 14.8363 21.4911 16.5013 20.5277L15.125 18.1469C13.8776 18.8686 12.4509 19.25 11 19.25C6.4507 19.25 2.74999 15.5493 2.74999 11C2.74999 6.4507 6.4507 2.74999 11 2.74999C15.5493 2.74999 19.25 6.4507 19.25 11V12.1977C19.25 13.0974 18.672 13.75 17.875 13.75C17.117 13.75 16.5 13.133 16.5 12.375V6.87499H14.5992C13.6319 6.02995 12.3822 5.49998 11 5.49998C7.96734 5.49998 5.49998 7.96734 5.49998 11C5.49998 14.0327 7.96734 16.5 11 16.5C12.4442 16.5 13.7498 15.9289 14.7323 15.0153C15.4895 15.9152 16.6095 16.5 17.875 16.5C20.1879 16.5 22 14.6101 22 12.1977V11C22 4.93468 17.0653 0 11 0V0ZM11 13.75C9.48331 13.75 8.25001 12.5166 8.25001 11C8.25001 9.48331 9.48336 8.25001 11 8.25001C12.5167 8.25001 13.75 9.48336 13.75 11C13.75 12.5167 12.5167 13.75 11 13.75Z" fill="#181919"/>
</svg>
