<svg width="8" height="14" viewBox="0 0 8 14" fill="none" xmlns="http://www.w3.org/2000/svg">
<path d="M5.31171 6.81162L0.217436 1.71713C0.0771653 1.57719 1.21526e-07 1.39009 1.04085e-07 1.19059C8.66339e-08 0.990977 0.0771652 0.803986 0.217436 0.663826L0.663824 0.217659C0.803874 0.0772771 0.991087 6.12739e-07 1.19059 5.95298e-07C1.39009 5.77857e-07 1.57708 0.077277 1.71724 0.217659L7.78278 6.28309C7.9235 6.42369 8.00055 6.61157 8 6.81129C8.00055 7.0119 7.92361 7.19955 7.78278 7.34027L1.72289 13.3998C1.58273 13.5402 1.39574 13.6175 1.19613 13.6175C0.996624 13.6175 0.809633 13.5402 0.669361 13.3998L0.223084 12.9537C-0.0673111 12.6633 -0.0673112 12.1905 0.223084 11.9002L5.31171 6.81162Z" fill="#181919"/>
</svg>
