<svg width="22" height="22" viewBox="0 0 22 22" fill="none" xmlns="http://www.w3.org/2000/svg">
<path d="M16.2788 12.6415C16.236 12.6209 14.6321 11.8312 14.3471 11.7286C14.2308 11.6868 14.1061 11.646 13.9736 11.646C13.757 11.646 13.5751 11.7539 13.4333 11.9659C13.2731 12.2041 12.7881 12.771 12.6383 12.9404C12.6187 12.9627 12.592 12.9894 12.576 12.9894C12.5616 12.9894 12.3134 12.8872 12.2383 12.8546C10.5178 12.1072 9.21183 10.31 9.03276 10.0069C9.00719 9.96337 9.00612 9.94358 9.00591 9.94358C9.01219 9.92051 9.07005 9.86251 9.09991 9.83258C9.18726 9.74615 9.28191 9.63222 9.37348 9.52201C9.41684 9.46979 9.46026 9.41751 9.50291 9.36822C9.63576 9.21365 9.69491 9.09365 9.76348 8.95465L9.79941 8.88244C9.96684 8.54979 9.82383 8.26908 9.77762 8.17844C9.73969 8.10258 9.06248 6.46815 8.99048 6.29643C8.81733 5.88208 8.58855 5.68915 8.27062 5.68915C8.24112 5.68915 8.27062 5.68915 8.14691 5.69436C7.99626 5.70072 7.1759 5.80872 6.81319 6.03736C6.42855 6.27986 5.77783 7.05286 5.77783 8.41229C5.77783 9.63579 6.55426 10.791 6.88762 11.2304C6.8959 11.2414 6.91112 11.2639 6.93319 11.2962C8.20983 13.1607 9.80134 14.5424 11.4147 15.1869C12.9679 15.8073 13.7034 15.879 14.1216 15.879C14.1216 15.879 14.1216 15.879 14.1216 15.879C14.2973 15.879 14.438 15.8652 14.5621 15.853L14.6408 15.8455C15.1773 15.7979 16.3565 15.1869 16.6247 14.4416C16.836 13.8545 16.8917 13.2131 16.7511 12.9803C16.6548 12.822 16.4889 12.7424 16.2788 12.6415Z" fill="black"/>
<path d="M11.1953 0C5.23699 0 0.389555 4.811 0.389555 10.7245C0.389555 12.6372 0.901413 14.5094 1.87106 16.1479L0.0151263 21.6226C-0.0194452 21.7247 0.00626913 21.8375 0.0817692 21.9144C0.136269 21.97 0.210198 22 0.285698 22C0.314627 22 0.343769 21.9957 0.372198 21.9866L6.08077 20.1726C7.64292 21.0072 9.40849 21.4478 11.1953 21.4478C17.1531 21.4479 22 16.6374 22 10.7245C22 4.811 17.1531 0 11.1953 0ZM11.1953 19.2139C9.51392 19.2139 7.88542 18.7284 6.48556 17.8098C6.43849 17.7789 6.38385 17.763 6.32885 17.763C6.29977 17.763 6.27063 17.7674 6.24227 17.7764L3.38263 18.6854L4.30577 15.9619C4.33563 15.8738 4.3207 15.7766 4.2657 15.7014C3.1997 14.2449 2.6362 12.5239 2.6362 10.7245C2.6362 6.04286 6.47577 2.234 11.1952 2.234C15.9141 2.234 19.7532 6.04286 19.7532 10.7245C19.7533 15.4056 15.9142 19.2139 11.1953 19.2139Z" fill="black"/>
</svg>
