<svg width="12" height="12" viewBox="0 0 12 12" fill="none" xmlns="http://www.w3.org/2000/svg">
<path d="M10.242 1.75672C7.89851 -0.586069 4.09951 -0.585506 1.75672 1.75801C-0.586069 4.10152 -0.585506 7.9005 1.75801 10.2433C4.10152 12.5861 7.9005 12.5855 10.2433 10.242C11.3684 9.11651 12.0004 7.59014 12 5.99872C11.9997 4.40755 11.3673 2.88167 10.242 1.75672ZM9.08679 8.35793C9.08653 8.35819 9.08628 8.35847 9.08599 8.35873V8.35674L8.78199 8.65873C8.38882 9.05686 7.81622 9.22067 7.27198 9.09073C6.72366 8.94396 6.20241 8.71034 5.72799 8.39874C5.28722 8.11704 4.87876 7.78774 4.50999 7.41673C4.17069 7.07991 3.86586 6.71007 3.59998 6.31273C3.30917 5.88518 3.07899 5.41944 2.91598 4.92872C2.72912 4.35226 2.88397 3.7197 3.31599 3.29473L3.67198 2.93874C3.77096 2.83932 3.93179 2.83897 4.03119 2.93794C4.03144 2.9382 4.03172 2.93846 4.03198 2.93874L5.15597 4.06273C5.2554 4.16171 5.25575 4.32254 5.15677 4.42194C5.15651 4.42219 5.15626 4.42245 5.15597 4.42273L4.49597 5.08273C4.3066 5.27004 4.28279 5.5677 4.43998 5.78274C4.67869 6.11035 4.94286 6.41862 5.22999 6.70475C5.55012 7.02626 5.89815 7.31874 6.26998 7.57875C6.48483 7.72861 6.77611 7.70335 6.96197 7.51875L7.59996 6.87075C7.69894 6.77133 7.85977 6.77098 7.95917 6.86996C7.95942 6.87021 7.95968 6.87047 7.95996 6.87075L9.08597 7.99875C9.18542 8.09771 9.18577 8.25851 9.08679 8.35793Z" fill="#88EAD6"/>
</svg>
