<svg width="24" height="18" viewBox="0 0 24 18" fill="none" xmlns="http://www.w3.org/2000/svg">
<path d="M12 0.75C6.80169 0.75 2.39134 4.27516 0.75 9.18752C2.39134 14.0999 6.80169 17.625 12 17.625C17.1983 17.625 21.6087 14.0998 23.25 9.18752C21.6087 4.27516 17.1983 0.75 12 0.75ZM12 14.8125C8.89337 14.8125 6.375 12.2941 6.375 9.18752C6.375 6.08089 8.89337 3.56252 12 3.56252C15.1066 3.56252 17.625 6.08089 17.625 9.18752C17.625 12.2941 15.1066 14.8125 12 14.8125Z" fill="#181919"/>
<path d="M13.9887 7.19876C15.0871 8.2971 15.0871 10.0779 13.9887 11.1762C12.8904 12.2746 11.1096 12.2746 10.0113 11.1762C8.91291 10.0779 8.91291 8.2971 10.0113 7.19876C11.1096 6.10041 12.8904 6.10041 13.9887 7.19876Z" fill="#181919"/>
</svg>
