<svg width="96" height="97" viewBox="0 0 96 97" fill="none" xmlns="http://www.w3.org/2000/svg">
<path fill-rule="evenodd" clip-rule="evenodd" d="M43.883 9.21082C44.5855 9.15301 45.2448 8.84835 45.744 8.35083C45.9517 8.12373 46.1041 7.85158 46.1891 7.55579C46.2741 7.25999 46.2895 6.94855 46.234 6.64581C46.2063 6.40817 46.1311 6.17855 46.0129 5.97052C45.8947 5.76249 45.736 5.58029 45.546 5.43481C45.1525 5.1345 44.6611 4.99189 44.168 5.03485V4.9928C44.559 4.87718 44.8958 4.6258 45.1178 4.28387C45.3398 3.94195 45.4325 3.53197 45.379 3.12781C45.3532 2.85974 45.2649 2.60148 45.1213 2.37366C44.9777 2.14583 44.7827 1.95475 44.552 1.8158C44.008 1.51779 43.377 1.41912 42.768 1.5368L39.379 2.0058L40.441 9.68384L43.883 9.21082ZM41.146 2.9848L42.513 2.79584C42.8215 2.73325 43.1422 2.77877 43.421 2.9248C43.5364 2.99844 43.6332 3.09781 43.7038 3.21509C43.7744 3.33237 43.817 3.46439 43.828 3.60083C43.8549 3.74413 43.8465 3.89183 43.8037 4.03119C43.7608 4.17054 43.6848 4.29737 43.582 4.40082C43.3168 4.63954 42.9799 4.7834 42.624 4.80981L41.424 4.97583L41.146 2.9848ZM41.875 8.26782L41.566 6.03882L42.96 5.84583C43.936 5.71249 44.4747 6.01252 44.576 6.74585C44.68 7.49785 44.2567 7.93947 43.306 8.0708L41.875 8.26782ZM57.401 9.60083L58.251 1.90082L56.639 1.72284L55.789 9.42285L57.401 9.60083ZM49.147 8.68982L52.335 9.04181C53.0405 9.14918 53.7598 8.97223 54.335 8.5498C54.6086 8.33675 54.8343 8.06855 54.9975 7.76257C55.1606 7.4566 55.2576 7.1197 55.282 6.7738C55.3329 6.42974 55.3093 6.0788 55.2129 5.74463C55.1164 5.41046 54.9494 5.10091 54.723 4.83685C54.2305 4.29313 53.546 3.96185 52.814 3.91284L51.32 3.7478L51.605 1.16382L49.992 0.98584L49.147 8.68982ZM50.902 7.58081L51.184 5.0188L52.327 5.14484C52.7157 5.16262 53.0843 5.32236 53.363 5.59381C53.4795 5.73003 53.5645 5.8903 53.6118 6.06317C53.6592 6.23604 53.6678 6.41724 53.637 6.59381C53.6287 6.77158 53.581 6.94531 53.4973 7.10236C53.4136 7.2594 53.296 7.39584 53.153 7.50183C52.8239 7.70283 52.4328 7.7768 52.053 7.70984L50.902 7.58081ZM61.827 11.0438L64.003 5.01685L67.17 6.15985L67.626 4.89685L62.926 3.20184L60.295 10.4918L61.827 11.0438ZM74.095 8.1958C73.6789 7.90746 73.2058 7.71161 72.7077 7.6214C72.2095 7.53119 71.6978 7.54876 71.207 7.67285C70.2099 8.03828 69.3638 8.72696 68.8036 9.62915C68.2434 10.5313 68.0014 11.5951 68.116 12.6508C68.3777 13.6301 69.0027 14.4729 69.8637 15.0077C70.7247 15.5425 71.7572 15.7292 72.751 15.5298C73.7484 15.1647 74.5948 14.4762 75.1552 13.5739C75.7156 12.6717 75.9578 11.6077 75.843 10.5518C75.7367 10.0571 75.5257 9.59089 75.2242 9.18451C74.9227 8.77813 74.5377 8.441 74.095 8.1958ZM73.381 9.34485C73.6338 9.4907 73.8479 9.69486 74.0057 9.94031C74.1635 10.1858 74.2603 10.4653 74.288 10.7558C74.2957 11.4418 74.1075 12.1159 73.7454 12.6987C73.3833 13.2814 72.8625 13.7488 72.244 14.0458C71.9693 14.138 71.6777 14.1684 71.39 14.1348C71.1022 14.1013 70.8254 14.0047 70.5792 13.8519C70.3331 13.6991 70.1238 13.4938 69.9661 13.2507C69.8084 13.0077 69.7063 12.7328 69.667 12.4458C69.6583 11.7596 69.8465 11.0852 70.2093 10.5027C70.5721 9.92012 71.0943 9.45373 71.714 9.15881C71.9866 9.05441 72.2802 9.0169 72.5703 9.04944C72.8603 9.08198 73.1384 9.18362 73.381 9.34583V9.34485ZM81.445 15.8168L83.145 17.5708L79.503 21.1058L77.303 18.8358L77.333 18.8058C77.9794 18.6725 78.5713 18.3494 79.033 17.8778L81.445 15.8168ZM75.773 19.1888L79.323 22.8468L78.223 23.9128L79.244 24.9648L81.306 22.9648L80.633 22.2708L85.233 17.8078L81.406 13.8648L78.078 16.7218C77.7585 17.0118 77.4037 17.2605 77.022 17.4619C76.7337 17.6052 76.4061 17.6495 76.09 17.5878L75.712 17.1989L73.65 19.1989L74.675 20.2548L75.773 19.1888ZM85.116 31.6398L91.816 27.7398L90.999 26.3398L88.28 27.9248L86.519 24.9058L89.238 23.3208L88.421 21.9208L81.726 25.8208L82.543 27.2208L85.364 25.5758L87.122 28.5918L84.301 30.2368L85.116 31.6398ZM94.854 35.5018C94.737 35.0092 94.5158 34.5473 94.2053 34.1473C93.8949 33.7473 93.5023 33.4184 93.054 33.1828C92.0681 32.7879 90.9784 32.7345 89.9585 33.031C88.9387 33.3275 88.0475 33.9569 87.427 34.8188C86.9674 35.7223 86.8691 36.7668 87.152 37.7401C87.4349 38.7134 88.0778 39.5425 88.95 40.0588C89.9359 40.4541 91.0257 40.5077 92.0456 40.2112C93.0656 39.9146 93.9567 39.2851 94.577 38.4229C94.8287 37.9838 94.9834 37.496 95.0309 36.9921C95.0783 36.4883 95.0173 35.9801 94.852 35.5018H94.854ZM93.554 35.8798C93.6445 36.1571 93.6674 36.4521 93.6206 36.74C93.5738 37.0279 93.4587 37.3005 93.285 37.5349C92.8327 38.0505 92.2424 38.4262 91.5837 38.6177C90.925 38.8092 90.2253 38.8086 89.567 38.6158C89.3008 38.5009 89.0633 38.3286 88.8715 38.1112C88.6796 37.8938 88.5382 37.6367 88.4572 37.3583C88.3763 37.0799 88.3579 36.787 88.4033 36.5007C88.4488 36.2143 88.5569 35.9415 88.72 35.7018C89.1726 35.186 89.7634 34.8104 90.4227 34.6198C91.0819 34.4291 91.7819 34.4312 92.44 34.6258C92.7124 34.7306 92.9557 34.8992 93.1495 35.1174C93.3434 35.3356 93.482 35.597 93.554 35.8798ZM86.575 62.3058C86.3115 62.9592 86.2877 63.6847 86.508 64.3538C86.6182 64.6401 86.7927 64.8973 87.0181 65.1054C87.2435 65.3135 87.5138 65.4669 87.808 65.5538C88.033 65.6356 88.2721 65.6715 88.5112 65.6593C88.7503 65.6471 88.9845 65.5871 89.2 65.4828C89.6435 65.2645 89.9896 64.8887 90.171 64.4288L90.212 64.4428C90.1397 64.8439 90.2129 65.2577 90.4187 65.6095C90.6244 65.9613 90.949 66.2281 91.334 66.3618C91.5853 66.4586 91.8557 66.4955 92.1238 66.4695C92.3918 66.4434 92.6501 66.3552 92.878 66.2119C93.3888 65.8593 93.7602 65.3393 93.928 64.7418L95.028 61.5028L87.691 59.0028L86.575 62.3058ZM93.367 62.6538L92.923 63.9598C92.8405 64.2635 92.6558 64.5295 92.4 64.7128C92.2824 64.7829 92.1502 64.825 92.0138 64.8358C91.8773 64.8465 91.7402 64.8257 91.613 64.7748C91.4719 64.7347 91.3428 64.6607 91.2368 64.5593C91.1308 64.4578 91.0513 64.332 91.005 64.1928C90.9109 63.8489 90.9334 63.4836 91.069 63.1538L91.46 62.0048L93.367 62.6538ZM88.318 60.9359L90.448 61.6608L89.995 62.9928C89.6777 63.9261 89.1684 64.2728 88.467 64.0328C87.7477 63.7888 87.5427 63.2125 87.852 62.3038L88.318 60.9359ZM80.14 74.1878L86.63 78.4248L87.516 77.0668L81.027 72.8298L80.14 74.1878ZM84.679 67.2348L82.926 69.9198C82.7197 70.2078 82.5723 70.5337 82.4924 70.8788C82.4124 71.224 82.4014 71.5815 82.46 71.9308C82.5264 72.2712 82.6638 72.5937 82.8632 72.8775C83.0625 73.1613 83.3194 73.3999 83.617 73.5778C83.9009 73.7786 84.2246 73.9161 84.5662 73.981C84.9078 74.0458 85.2593 74.0366 85.597 73.9538C86.3044 73.7598 86.9089 73.2988 87.283 72.6678L88.105 71.4088L90.282 72.8298L91.169 71.4718L84.679 67.2348ZM84.875 69.3058L87.034 70.7148L86.406 71.6778C86.2138 72.0161 85.9048 72.2729 85.537 72.3998C85.3631 72.4416 85.1823 72.4448 85.007 72.409C84.8318 72.3732 84.6666 72.2994 84.523 72.1928C84.3681 72.1052 84.2346 71.9841 84.1322 71.8385C84.0298 71.6929 83.9611 71.5263 83.931 71.3508C83.9005 70.9654 84.0118 70.582 84.244 70.2728L84.875 69.3058ZM76.844 77.5058L81.244 82.1599L78.798 84.4748L79.721 85.4498L83.349 82.0168L78.022 76.3878L76.844 77.5058ZM73.905 89.7318C74.3491 89.489 74.7361 89.154 75.0398 88.7491C75.3436 88.3443 75.5571 87.8791 75.666 87.3848C75.7859 86.3296 75.5492 85.2646 74.9935 84.3595C74.4379 83.4544 73.5953 82.7614 72.6 82.3908C71.6074 82.1862 70.574 82.3674 69.7102 82.8976C68.8464 83.4278 68.217 84.2671 67.95 85.2448C67.8295 86.3 68.0659 87.3652 68.6214 88.2703C69.177 89.1755 70.0196 89.8685 71.015 90.2388C71.505 90.3654 72.0164 90.3857 72.5149 90.2983C73.0134 90.2108 73.4874 90.0177 73.905 89.7318ZM73.197 88.5788C72.9536 88.7395 72.6753 88.8397 72.3853 88.8708C72.0953 88.902 71.802 88.8632 71.53 88.7578C70.9136 88.4572 70.3956 87.9871 70.0368 87.4026C69.678 86.8182 69.4932 86.1436 69.504 85.4578C69.5445 85.1708 69.6479 84.8962 69.8068 84.6538C69.9658 84.4114 70.1763 84.207 70.4234 84.0554C70.6704 83.9038 70.9479 83.8086 71.236 83.7767C71.5242 83.7448 71.8158 83.777 72.09 83.8708C72.7071 84.1703 73.2255 84.6402 73.5838 85.225C73.9421 85.8099 74.1254 86.4851 74.112 87.1708C74.0827 87.4612 73.9843 87.7403 73.8251 87.9849C73.666 88.2294 73.4506 88.4324 73.197 88.5768V88.5788ZM63.786 92.8868L61.455 93.6178L59.936 88.7748L62.955 87.8288L62.967 87.8698C62.797 88.5061 62.8199 89.1786 63.033 89.8018L63.786 92.8868ZM63.327 86.3048L58.463 87.8298L58.005 86.3688L56.605 86.8078L57.465 89.5498L58.387 89.2608L60.304 95.3748L65.547 93.7308L64.494 89.4728C64.3785 89.0574 64.316 88.629 64.308 88.1978C64.3092 87.8755 64.4167 87.5626 64.614 87.3078L65.132 87.1458L64.275 84.4058L62.875 84.8458L63.327 86.3048ZM47.983 89.0308L48.443 96.7668L50.062 96.6668L49.875 93.5288L53.36 93.3218L53.547 96.4638L55.166 96.3638L54.707 88.6268L53.087 88.7268L53.281 91.9868L49.796 92.1938L49.602 88.9338L47.983 89.0308ZM40.125 95.9918C40.6174 96.1088 41.129 96.119 41.6256 96.0217C42.1222 95.9244 42.5922 95.7219 43.004 95.4278C43.7998 94.7245 44.3372 93.775 44.5306 92.7307C44.724 91.6864 44.5622 90.6075 44.071 89.6658C43.4706 88.849 42.5816 88.2915 41.5847 88.1069C40.5879 87.9222 39.5582 88.1242 38.705 88.6718C37.9097 89.3755 37.3727 90.325 37.1795 91.3692C36.9863 92.4134 37.1481 93.4922 37.639 94.4338C37.9181 94.8561 38.2843 95.2135 38.7131 95.4823C39.142 95.7511 39.6234 95.9248 40.125 95.9918ZM40.371 94.6618C40.0825 94.6181 39.8087 94.506 39.5724 94.3348C39.3362 94.1636 39.1444 93.9383 39.013 93.6778C38.7548 93.0423 38.6835 92.3463 38.8075 91.6717C38.9315 90.9971 39.2457 90.3719 39.713 89.8698C39.9355 89.684 40.1962 89.5495 40.4766 89.476C40.7569 89.4025 41.0501 89.3918 41.3351 89.4446C41.6201 89.4974 41.8899 89.6125 42.1253 89.7816C42.3608 89.9506 42.5559 90.1696 42.697 90.4229C42.955 91.0589 43.0252 91.7556 42.8994 92.4303C42.7735 93.105 42.4569 93.7295 41.987 94.2298C41.7709 94.426 41.511 94.5676 41.229 94.6428C40.947 94.7179 40.6511 94.7244 40.366 94.6618H40.371ZM17.452 73.6708C17.0388 73.0995 16.4365 72.6931 15.752 72.5238C15.4501 72.4641 15.1384 72.4749 14.8412 72.5554C14.5441 72.6359 14.2696 72.7838 14.039 72.9878C13.8501 73.1347 13.6925 73.318 13.5757 73.5269C13.4589 73.7357 13.3852 73.9659 13.359 74.2038C13.3076 74.6954 13.4413 75.1886 13.734 75.5869L13.701 75.6138C13.3997 75.339 13.0102 75.1809 12.6026 75.1678C12.195 75.1548 11.7962 75.2878 11.478 75.5428C11.2624 75.7041 11.0875 75.9135 10.967 76.1542C10.8465 76.395 10.7839 76.6606 10.784 76.9298C10.8109 77.5497 11.0536 78.1408 11.47 78.6008L13.626 81.2568L19.644 76.3728L17.452 73.6708ZM13.544 79.2358L12.674 78.1648C12.4607 77.9332 12.3339 77.6351 12.315 77.3208C12.3181 77.1837 12.3528 77.0492 12.4165 76.9278C12.4801 76.8064 12.571 76.7013 12.682 76.6208C12.7909 76.5228 12.922 76.4527 13.064 76.4168C13.206 76.3809 13.3547 76.3802 13.497 76.4148C13.8385 76.5183 14.136 76.7322 14.343 77.0228L15.108 77.9648L13.544 79.2358ZM17.685 75.8748L15.938 77.2938L15.055 76.2058C14.4344 75.4411 14.4117 74.8252 14.987 74.3578C15.577 73.8799 16.1744 74.0131 16.779 74.7578L17.685 75.8748ZM10.81 61.9058L3.77203 65.1528L4.45202 66.6258L11.49 63.3788L10.81 61.9058ZM14.289 69.4458L12.945 66.5349C12.8108 66.2069 12.613 65.9088 12.3632 65.6575C12.1133 65.4063 11.8162 65.2069 11.489 65.0708C11.1654 64.9464 10.8191 64.8915 10.4729 64.9096C10.1266 64.9277 9.78798 65.0184 9.47903 65.1758C9.15823 65.3099 8.86991 65.5111 8.63357 65.7661C8.39723 66.0211 8.21837 66.3238 8.10903 66.6538C7.89686 67.3562 7.96606 68.1135 8.30203 68.7658L8.93203 70.1308L6.57104 71.2198L7.25103 72.6928L14.289 69.4458ZM12.434 68.5158L10.093 69.5958L9.61102 68.5518C9.42566 68.2094 9.37229 67.8109 9.46102 67.4318C9.51781 67.2622 9.61122 67.1072 9.73461 66.9778C9.85801 66.8483 10.0083 66.7476 10.175 66.6828C10.3315 66.5983 10.5048 66.5496 10.6825 66.5402C10.8601 66.5309 11.0375 66.5612 11.202 66.6288C11.5452 66.8076 11.8113 67.1056 11.95 67.4668L12.434 68.5158ZM9.76101 57.3468L3.47503 58.5869L2.82302 55.2868L1.50604 55.5468L2.47201 60.4468L10.072 58.9468L9.76101 57.3468ZM0.994013 48.3109C0.960431 48.8158 1.03545 49.322 1.21398 49.7955C1.39252 50.269 1.67042 50.6988 2.02902 51.0558C2.85426 51.7243 3.87949 52.0972 4.94131 52.1154C6.00313 52.1335 7.04046 51.7957 7.88803 51.1558C8.59364 50.4281 8.99558 49.4589 9.01211 48.4454C9.02864 47.4319 8.65852 46.4502 7.97702 45.6998C7.15177 45.0314 6.12657 44.6584 5.06475 44.6403C4.00293 44.6222 2.96561 44.9599 2.11804 45.5998C1.74798 45.9452 1.4562 46.3659 1.26232 46.8336C1.06844 47.3012 0.97694 47.8049 0.994013 48.3109ZM2.34701 48.3318C2.34231 48.0406 2.40743 47.7524 2.53686 47.4915C2.66629 47.2305 2.85631 47.0044 3.09103 46.8318C3.67525 46.4722 4.35008 46.2869 5.03607 46.2979C5.72205 46.3088 6.39063 46.5156 6.96304 46.8938C7.18355 47.0821 7.35972 47.3169 7.479 47.5812C7.59828 47.8455 7.65769 48.1329 7.65301 48.4229C7.64833 48.7128 7.57968 48.9981 7.45193 49.2585C7.32418 49.5188 7.1405 49.7477 6.91403 49.9288C6.32944 50.2882 5.65419 50.4728 4.96807 50.4608C4.28195 50.4487 3.61362 50.2405 3.04202 49.8608C2.81274 49.6802 2.63003 49.4473 2.50912 49.1817C2.38821 48.9161 2.33261 48.6253 2.34701 48.3338V48.3318ZM3.71203 38.0938L4.33303 35.7298L9.24203 37.0219L8.43704 40.0808L8.39602 40.0698C7.94725 39.5872 7.36536 39.2485 6.72402 39.0968L3.71203 38.0938ZM9.52902 41.2068L10.829 36.2778L12.31 36.6668L12.683 35.2488L9.90402 34.5178L9.65802 35.4528L3.45803 33.8228L2.05804 39.1358L6.22302 40.5098C6.63637 40.6332 7.03252 40.8083 7.40203 41.0308C7.67405 41.2035 7.88145 41.4612 7.99203 41.7638L7.85403 42.2888L10.633 43.0198L11.008 41.5968L9.52902 41.2068ZM15.38 26.7858L8.58602 23.0548L7.80502 24.4768L10.564 25.9918L8.88403 29.0518L6.12503 27.5368L5.34402 28.9588L12.138 32.6898L12.918 31.2678L10.056 29.6958L11.737 26.6358L14.599 28.2078L15.38 26.7858ZM13.687 16.4298C13.3255 16.7838 13.0439 17.2112 12.8612 17.6831C12.6785 18.155 12.599 18.6606 12.628 19.1658C12.7984 20.2134 13.3142 21.1739 14.0934 21.8946C14.8726 22.6152 15.8704 23.0546 16.928 23.1428C17.9385 23.0697 18.8832 22.6147 19.5704 21.8703C20.2576 21.1259 20.6357 20.1479 20.628 19.1348C20.4577 18.0872 19.9419 17.1267 19.1627 16.4061C18.3835 15.6854 17.3857 15.246 16.328 15.1578C15.8219 15.1688 15.324 15.2879 14.8678 15.5073C14.4115 15.7267 14.0076 16.0413 13.683 16.4298H13.687ZM14.681 17.3478C14.8719 17.1271 15.1128 16.9552 15.3837 16.8467C15.6546 16.7381 15.9475 16.696 16.238 16.7238C16.9129 16.846 17.539 17.1582 18.0427 17.6237C18.5465 18.0892 18.907 18.6886 19.082 19.3518C19.1207 19.6391 19.0955 19.9314 19.0082 20.2078C18.9209 20.4842 18.7737 20.7379 18.577 20.9508C18.3803 21.1637 18.1391 21.3306 17.8704 21.4395C17.6018 21.5484 17.3125 21.5967 17.023 21.5808C16.3475 21.4594 15.7209 21.1469 15.2174 20.6805C14.7139 20.214 14.3546 19.6131 14.182 18.9489C14.1315 18.6616 14.1506 18.3664 14.2376 18.0881C14.3246 17.8097 14.477 17.5562 14.682 17.3488L14.681 17.3478Z" fill="#F7C7A1"/>
</svg>
