<svg width="118" height="118" viewBox="0 0 118 118" fill="none" xmlns="http://www.w3.org/2000/svg">
<path fill-rule="evenodd" clip-rule="evenodd" d="M37.7735 7.04442L39.0727 3.28875L37.6898 3.85058L36.5356 7.2073L36.5027 7.22002L35.4956 4.7426L34.2711 5.24018L36.6491 11.0922L37.8736 10.5947L36.8277 8.02312L36.8598 8.00967L40.1112 9.68468L41.6398 9.06311L37.7735 7.04442ZM44.7589 1.55921C44.3535 1.63561 43.9692 1.79796 43.6318 2.03533C43.2945 2.27271 43.0118 2.5796 42.803 2.93536C42.4443 3.72327 42.3598 4.60861 42.5629 5.45017C42.766 6.29173 43.2451 7.04106 43.9237 7.57862C44.6422 7.98659 45.4892 8.10552 46.2924 7.91122C47.0955 7.71692 47.7945 7.22397 48.2472 6.53266C48.6055 5.7448 48.6899 4.85966 48.4868 4.0183C48.2837 3.17693 47.8048 2.42777 47.1265 1.89017C46.7786 1.6687 46.3873 1.52431 45.9789 1.46671C45.5705 1.4091 45.1545 1.43962 44.7589 1.55622V1.55921ZM45.0174 2.6313C45.2465 2.56771 45.4876 2.56003 45.7203 2.60891C45.953 2.65779 46.1706 2.76179 46.3547 2.91219C46.7572 3.30024 47.0406 3.79507 47.1716 4.33859C47.3027 4.88211 47.2758 5.45173 47.0944 5.98054C46.9908 6.19289 46.8415 6.37976 46.6573 6.52773C46.4731 6.6757 46.2585 6.78114 46.0288 6.83653C45.7991 6.89192 45.56 6.89591 45.3286 6.84816C45.0972 6.80041 44.8792 6.70208 44.6902 6.56029C44.2874 6.17231 44.0041 5.67712 43.8738 5.13325C43.7436 4.58938 43.7717 4.01958 43.955 3.49121C44.0505 3.27339 44.1968 3.08165 44.3816 2.93203C44.5665 2.78241 44.7845 2.67927 45.0174 2.6313ZM57.1593 6.29809L56.67 0L55.3521 0.102348L55.5508 2.65971L52.7118 2.88383L52.5131 0.326493L51.1945 0.428841L51.6838 6.72691L53.0017 6.62454L52.7963 3.97083L55.6352 3.75045L55.8414 6.40416L57.1593 6.29809ZM62.7028 6.6477C63.3743 6.72307 64.051 6.56165 64.6162 6.19125C65.143 5.83268 65.5081 5.28166 65.633 4.65669L64.336 4.55884C64.2357 4.86761 64.031 5.13179 63.757 5.30594C63.4679 5.48189 63.129 5.558 62.7925 5.52258C62.5601 5.51347 62.3335 5.4474 62.1326 5.33015C61.9317 5.2129 61.7627 5.04805 61.6404 4.85017C61.3584 4.35911 61.2458 3.78889 61.3199 3.22747C61.3323 2.66374 61.5309 2.11996 61.8848 1.68098C62.0346 1.5053 62.2251 1.36885 62.4397 1.28344C62.6542 1.19804 62.8864 1.16626 63.116 1.19088C63.456 1.20534 63.7801 1.33894 64.0315 1.56826C64.283 1.79758 64.4458 2.10803 64.4914 2.44527L65.7884 2.54313C65.7676 1.89621 65.4921 1.28371 65.0218 0.839008C64.5261 0.373542 63.8804 0.100384 63.2012 0.0687413C62.7979 0.0188985 62.3887 0.0572202 62.0017 0.181053C61.6147 0.304886 61.2592 0.511269 60.9598 0.785953C60.384 1.4396 60.0366 2.26291 59.9702 3.13148C59.9037 4.00005 60.1218 4.86665 60.5915 5.60028C60.8467 5.91714 61.1676 6.17477 61.5322 6.35537C61.8967 6.53596 62.2962 6.63523 62.7028 6.64625V6.6477ZM68.7006 7.36421C69.1701 7.49003 69.6697 7.43676 70.1021 7.21478C70.578 6.90937 70.9834 6.50622 71.2915 6.03211L74.1664 2.05604L72.8082 1.7512L70.7499 4.88902L70.7155 4.88159L70.1298 1.15203L68.7626 0.845712L69.7562 6.00074C69.6314 6.1253 69.4756 6.21437 69.3049 6.25888C69.1342 6.30338 68.9548 6.30171 68.785 6.254C68.6574 6.2302 68.5337 6.18897 68.4174 6.13147L68.1821 7.1819C68.3414 7.27959 68.5197 7.34222 68.7051 7.36567L68.7006 7.36421ZM79.4447 10.6021L81.6688 4.6903L77.6001 3.15948L76.1059 6.58797C75.9757 6.93696 75.7777 7.25664 75.5231 7.52855C75.4302 7.61778 75.313 7.67765 75.1862 7.70064C75.0595 7.72363 74.9287 7.70874 74.8104 7.65782C74.7182 7.62231 74.6303 7.5767 74.5481 7.52185L74.141 8.60365C74.2697 8.70073 74.4133 8.7764 74.5661 8.82777C74.8101 8.93761 75.0784 8.98253 75.3449 8.95819C75.6114 8.93384 75.8671 8.84102 76.0872 8.68878C76.597 8.2673 76.986 7.71826 77.2146 7.0975L78.3195 4.59468L80.0446 5.24315L78.2037 10.1352L79.4447 10.6021ZM81.946 11.79L84.2313 13.0601C84.4775 13.211 84.7511 13.3118 85.0364 13.3567C85.3217 13.4016 85.613 13.3897 85.8937 13.3216C86.1663 13.2476 86.4203 13.117 86.6391 12.9383C86.8579 12.7597 87.0367 12.537 87.1637 12.2846C87.3104 12.042 87.4033 11.7706 87.436 11.489C87.4687 11.2074 87.4406 10.922 87.3535 10.6522C87.1542 10.0888 86.7442 9.62466 86.2097 9.35746L85.1376 8.75978L86.1648 6.90698L85.0091 6.26594L81.946 11.79ZM83.6142 11.5084L84.6333 9.67123L85.4551 10.1255C85.742 10.2611 85.9691 10.4975 86.0931 10.7896C86.1375 10.9284 86.1508 11.0753 86.1321 11.2197C86.1134 11.3642 86.0631 11.5028 85.9848 11.6257C85.9225 11.7567 85.8319 11.8723 85.7195 11.964C85.6071 12.0558 85.4757 12.1214 85.3348 12.1561C85.0227 12.204 84.7038 12.1359 84.4383 11.9648L83.6142 11.5084ZM89.9646 16.8008L93.0539 12.5842L94.5481 13.6787L95.1898 12.8001L91.1398 9.83187L90.4951 10.7112L91.9855 11.8027L88.8955 16.0194L89.9646 16.8008ZM95.7838 21.8542L96.8013 22.8255L99.5656 16.7366L98.4405 15.6645L92.4951 18.7276L93.4775 19.6637L94.8835 18.886L96.4898 20.4176L95.7838 21.8542ZM98.1446 17.0474L98.1671 17.0683L96.9717 19.5001L95.7763 18.3615L98.1446 17.0474ZM101.133 30.233L102.987 28.8135L102.508 28.1882L106.655 25.0063L105.85 23.9603L101.703 27.1422L100.011 24.9368L104.155 21.7489L103.35 20.703L98.3389 24.5483L101.392 28.5289L100.402 29.2879L101.133 30.233ZM105.343 35.1527L105.968 36.3129L111.53 33.3185L110.925 32.1979L105.801 31.7003L105.776 31.654L109.542 29.6271L108.917 28.4668L103.355 31.4612L103.959 32.5819L109.08 33.0817L109.105 33.1273L105.343 35.1527ZM111.312 41.0428L110.946 40.0163C110.828 39.7389 110.818 39.4271 110.919 39.1429C110.974 39.0161 111.055 38.903 111.159 38.8116C111.262 38.7203 111.384 38.653 111.517 38.6147C111.645 38.5621 111.782 38.5381 111.92 38.5444C112.058 38.5508 112.193 38.5873 112.316 38.6514C112.572 38.8069 112.761 39.053 112.844 39.3409L113.209 40.3682L111.312 41.0428ZM110.08 40.5199L110.384 41.3738L108.235 42.1381L108.675 43.3753L114.626 41.2587L113.758 38.8172C113.583 38.2331 113.192 37.7373 112.665 37.4306C112.422 37.2989 112.153 37.2225 111.876 37.2067C111.6 37.191 111.324 37.2363 111.067 37.3394C110.676 37.4697 110.34 37.7298 110.117 38.0768C109.898 38.4212 109.793 38.826 109.818 39.2334L106.939 38.4922L107.429 39.8699L110.08 40.5199ZM113.705 66.1582L116.325 69.1466L116.521 67.6666L114.177 65.0016L114.181 64.9665L116.833 65.3184L117.006 64.008L110.745 63.1773L110.57 64.4876L113.322 64.853L113.317 64.8874L110.254 66.8829L110.036 68.519L113.705 66.1582ZM115.02 74.9232C115.154 74.5331 115.203 74.1188 115.163 73.7082C115.124 73.2976 114.997 72.9003 114.791 72.5429C114.283 71.8416 113.556 71.3302 112.724 71.0904C111.892 70.8506 111.004 70.8961 110.201 71.2198C109.491 71.6422 108.969 72.3193 108.74 73.1133C108.511 73.9072 108.594 74.7585 108.97 75.494C109.478 76.1949 110.205 76.7059 111.037 76.9456C111.868 77.1852 112.756 77.1397 113.559 76.8163C113.923 76.6234 114.243 76.3546 114.495 76.0281C114.747 75.7015 114.926 75.3248 115.02 74.9232ZM113.961 74.6176C113.903 74.8482 113.79 75.0615 113.632 75.2396C113.474 75.4177 113.276 75.5554 113.055 75.6412C112.518 75.7992 111.948 75.8009 111.411 75.646C110.874 75.4912 110.392 75.1863 110.022 74.7671C109.889 74.5719 109.8 74.3498 109.763 74.1165C109.725 73.8833 109.74 73.6446 109.805 73.4175C109.871 73.1905 109.986 72.9808 110.141 72.8032C110.297 72.6257 110.491 72.4847 110.707 72.3905C111.244 72.2319 111.814 72.2304 112.352 72.3861C112.889 72.5418 113.37 72.8483 113.739 73.2691C113.881 73.4596 113.976 73.6815 114.015 73.9161C114.054 74.1507 114.036 74.3913 113.963 74.6176H113.961ZM104.764 83.3587L110.477 86.0528L111.041 84.8574L108.721 83.7629L109.935 81.1892L112.254 82.2836L112.818 81.0883L107.105 78.3942L106.541 79.5896L108.948 80.7244L107.733 83.299L105.325 82.1633L104.764 83.3587ZM101.695 88.0102C101.295 88.5553 101.099 89.2227 101.139 89.8973C101.187 90.5316 101.482 91.1217 101.961 91.541L102.691 90.4651C102.472 90.2242 102.344 89.9143 102.328 89.5888C102.319 89.2505 102.422 88.9186 102.621 88.6445C102.745 88.4475 102.915 88.284 103.117 88.1684C103.319 88.0529 103.547 87.9888 103.779 87.9818C104.339 88.0112 104.88 88.1934 105.343 88.5088C105.806 88.8242 106.174 89.2605 106.406 89.7703C106.484 89.9877 106.508 90.2208 106.475 90.4495C106.443 90.6781 106.355 90.8953 106.219 91.0823C106.037 91.3697 105.76 91.5841 105.436 91.6882C105.112 91.7922 104.762 91.7793 104.446 91.6516L103.717 92.7274C104.288 93.0307 104.956 93.0965 105.576 92.9104C106.226 92.7122 106.785 92.2883 107.15 91.7151C107.394 91.3903 107.565 91.0163 107.65 90.6191C107.735 90.2219 107.733 89.811 107.643 89.4147C107.363 88.5902 106.821 87.8793 106.101 87.3895C105.381 86.8996 104.521 86.6573 103.651 86.699C103.249 86.7624 102.865 86.9124 102.527 87.1387C102.189 87.3649 101.904 87.6621 101.692 88.0094L101.695 88.0102ZM98.0901 92.8552C97.7469 93.1994 97.5442 93.6591 97.5216 94.1447C97.5506 94.7093 97.699 95.2613 97.9571 95.7644L99.9788 100.235L100.918 99.207L99.219 95.863L99.2429 95.8368L102.77 97.1816L103.716 96.1476L98.7498 94.4487C98.7032 94.278 98.7031 94.098 98.7495 93.9272C98.7959 93.7564 98.887 93.6012 99.0135 93.4775C99.0978 93.3789 99.1951 93.2922 99.3027 93.2197L98.5077 92.4936C98.3448 92.5826 98.2024 92.705 98.0901 92.8529V92.8552ZM89.9549 100.572L93.9893 105.428L97.3333 102.651L95.092 99.6582C94.854 99.3722 94.6745 99.0422 94.5638 98.687C94.5323 98.5621 94.5384 98.4308 94.5812 98.3094C94.624 98.1879 94.7016 98.0818 94.8043 98.0042C94.881 97.9419 94.9642 97.8881 95.0524 97.8436L94.3142 96.9545C94.1656 97.0177 94.0283 97.1047 93.9078 97.2122C93.6917 97.3699 93.5199 97.5806 93.4091 97.824C93.2982 98.0674 93.2521 98.3353 93.275 98.6018C93.388 99.2533 93.6716 99.8632 94.0968 100.369L95.724 102.569L94.3045 103.746L90.9657 99.7248L89.9549 100.572ZM87.683 102.162L85.4514 103.522C85.1988 103.662 84.9764 103.85 84.7969 104.076C84.6174 104.301 84.4843 104.56 84.4054 104.838C84.3345 105.112 84.3223 105.397 84.3694 105.676C84.4165 105.955 84.522 106.22 84.6789 106.455C84.8172 106.703 85.007 106.917 85.2356 107.085C85.4641 107.253 85.726 107.369 86.0035 107.427C86.5919 107.532 87.1982 107.405 87.6949 107.072L88.7409 106.434L89.8436 108.243L90.9725 107.555L87.683 102.162ZM87.1032 103.751L88.197 105.544L87.3968 106.032C87.1368 106.213 86.8195 106.293 86.5048 106.256C86.3624 106.226 86.2284 106.165 86.1122 106.077C85.996 105.989 85.9005 105.877 85.8324 105.749C85.7494 105.63 85.6938 105.494 85.6696 105.351C85.6454 105.208 85.6533 105.061 85.6927 104.922C85.8052 104.627 86.0215 104.384 86.3008 104.237L87.1032 103.751ZM79.3558 106.657L81.4902 111.428L79.8003 112.185L80.2478 113.183L84.8313 111.132L84.383 110.137L82.6968 110.892L80.5616 106.121L79.3558 106.657ZM72.0954 109.203L70.7506 109.606L74.6669 115.028L76.1552 114.58L76.4458 107.9L75.1458 108.289L75.1242 109.895L72.9972 110.531L72.0954 109.203ZM75.0988 113.637L75.0696 113.646L73.5523 111.4L75.1331 110.927L75.0988 113.637ZM62.1739 109.678L62.4862 111.994L63.2669 111.888L63.961 117.068L65.2706 116.892L64.5728 111.711L67.3281 111.338L68.0259 116.518L69.3356 116.342L68.4921 110.081L63.5209 110.753L63.3558 109.522L62.1739 109.678ZM55.8235 110.889L54.5064 110.857L54.3487 117.171L55.6188 117.203L58.5915 112.999H58.6438L58.5377 117.274L59.8549 117.307L60.0125 110.993L58.7424 110.96L55.7697 115.161H55.7167L55.8235 110.889ZM47.7488 113.161L48.8224 113.352C49.122 113.386 49.3977 113.532 49.5949 113.76C49.7488 113.989 49.8074 114.269 49.7583 114.541C49.7092 114.813 49.5563 115.055 49.3319 115.216C49.0699 115.362 48.7624 115.405 48.4705 115.335L47.3977 115.144L47.7488 113.161ZM48.8135 112.35L47.9214 112.192L48.3196 109.946L47.0264 109.716L45.9229 115.936L48.475 116.389C49.0689 116.525 49.6925 116.431 50.2195 116.125C50.4544 115.979 50.6542 115.782 50.8046 115.55C50.9551 115.317 51.0525 115.055 51.0899 114.78C51.17 114.376 51.1096 113.955 50.9188 113.589C50.7278 113.229 50.4276 112.937 50.0611 112.757L52.1298 110.621L50.6902 110.366L48.8135 112.35ZM24.7336 102.787L20.8382 103.572L22.0246 104.479L25.5024 103.771L25.53 103.792L23.9058 105.918L24.9562 106.72L28.7919 101.702L27.7422 100.898L26.0567 103.104L26.0283 103.082L25.8221 99.4312L24.5109 98.4293L24.7336 102.787ZM16.4841 99.5835C16.7564 99.8934 17.092 100.141 17.4681 100.311C17.8443 100.48 18.2523 100.567 18.6649 100.565C19.5255 100.472 20.3302 100.094 20.9509 99.4909C21.5716 98.8876 21.9724 98.0938 22.0896 97.2362C22.0749 96.4101 21.7462 95.6206 21.1703 95.0282C20.5944 94.4357 19.8145 94.0848 18.9891 94.0468C18.1286 94.1397 17.324 94.518 16.7035 95.1214C16.083 95.7247 15.6822 96.5183 15.5651 97.3758C15.5518 97.7881 15.6269 98.1985 15.7854 98.5793C15.9439 98.9601 16.1821 99.3025 16.4841 99.5835ZM17.2753 98.8148C17.1038 98.65 16.9744 98.4465 16.8978 98.2213C16.8213 97.9962 16.7998 97.756 16.8352 97.5208C16.9642 96.977 17.2457 96.4812 17.6465 96.0916C18.0473 95.702 18.5509 95.4348 19.0982 95.3213C19.3337 95.3022 19.5705 95.3354 19.7917 95.4184C20.0129 95.5014 20.2131 95.6324 20.3778 95.8018C20.5425 95.9711 20.6678 96.1748 20.7447 96.3982C20.8216 96.6217 20.8481 96.8593 20.8225 97.0942C20.6942 97.6388 20.4125 98.1352 20.0107 98.5246C19.609 98.914 19.1041 99.1801 18.5558 99.2914C18.3198 99.3202 18.0803 99.2919 17.8575 99.209C17.6347 99.1261 17.435 98.9909 17.2753 98.8148ZM14.2293 86.4936L9.06236 90.1275L9.8229 91.2085L11.9208 89.733L13.5577 92.0602L11.4598 93.5358L12.2204 94.6176L17.3873 90.9837L16.6268 89.9026L14.4497 91.4334L12.8128 89.1062L14.9899 87.5746L14.2293 86.4936ZM11.7049 81.5336C11.4294 80.9157 10.9466 80.4135 10.3399 80.1141C9.76342 79.8428 9.10355 79.8085 8.50203 80.0184L9.0758 81.1854C9.39365 81.1133 9.72673 81.1548 10.0172 81.3027C10.3157 81.462 10.5536 81.715 10.694 82.0229C10.8033 82.2286 10.8605 82.4579 10.8605 82.6908C10.8605 82.9237 10.8033 83.1531 10.694 83.3587C10.3919 83.8306 9.96617 84.2106 9.4631 84.4573C8.96003 84.704 8.39892 84.8081 7.84084 84.758C7.6137 84.718 7.39975 84.6231 7.2175 84.4818C7.03526 84.3404 6.89021 84.1567 6.7949 83.9467C6.63798 83.6435 6.58896 83.296 6.65594 82.9612C6.72997 82.6309 6.91446 82.3358 7.17892 82.1245L6.60514 80.9583C6.0584 81.305 5.67068 81.8535 5.52632 82.4846C5.37743 83.1479 5.47043 83.8427 5.78855 84.4435C5.94999 84.8166 6.19063 85.1503 6.49378 85.4212C6.79694 85.6921 7.15538 85.8938 7.54425 86.0124C8.39967 86.1759 9.28506 86.0567 10.0667 85.6727C10.8484 85.2888 11.484 84.6609 11.8774 83.8839C12.0211 83.5032 12.0802 83.0958 12.0507 82.6899C12.0211 82.2841 11.9036 81.8895 11.7064 81.5336H11.7049ZM9.27977 76.005C9.15065 75.5363 8.85153 75.1325 8.44077 74.8724C7.93636 74.6173 7.38348 74.4724 6.81881 74.4473L1.93351 73.9886L2.3601 75.3132L6.10757 75.4955L6.11802 75.5283L3.20432 77.9258L3.63391 79.2594L7.57039 75.7883C7.74123 75.8327 7.89717 75.9217 8.02218 76.0463C8.14718 76.171 8.23674 76.3266 8.28164 76.4973C8.32524 76.6194 8.35237 76.7468 8.36233 76.8761L9.38735 76.5459C9.39032 76.3602 9.35443 76.176 9.282 76.005H9.27977ZM6.6171 65.0973L0.393723 66.1814L1.14083 70.4637L4.85243 70.008C5.21903 69.943 5.59491 69.9517 5.95815 70.0334C6.08224 70.0682 6.19334 70.1387 6.27757 70.2362C6.36181 70.3338 6.41546 70.454 6.43181 70.5818C6.44741 70.6793 6.45266 70.7782 6.4475 70.8769L7.58609 70.6781C7.60517 70.5179 7.59784 70.3556 7.56441 70.1978C7.53512 69.9318 7.43769 69.6779 7.28155 69.4607C7.12541 69.2434 6.91585 69.0701 6.67313 68.9576C6.05141 68.7326 5.38124 68.6762 4.73065 68.794L2.01269 69.1122L1.69667 67.296L6.84571 66.3995L6.6171 65.0973ZM6.37129 62.3584L6.29659 59.7436C6.30113 59.4548 6.24854 59.168 6.14187 58.8997C6.03519 58.6313 5.87653 58.3867 5.675 58.1799C5.47256 57.9826 5.23078 57.8302 4.96547 57.7326C4.70016 57.635 4.41726 57.5944 4.13522 57.6136C3.85179 57.6109 3.5711 57.6691 3.31214 57.7844C3.05319 57.8996 2.82202 58.0691 2.63428 58.2815C2.25039 58.7396 2.0594 59.3289 2.1016 59.9251L2.13597 61.1504L0.017932 61.2094L0.0545427 62.531L6.37129 62.3584ZM5.27978 61.0667L3.17967 61.125L3.15353 60.1881C3.12459 59.8723 3.2123 59.5568 3.40007 59.3013C3.49687 59.1924 3.61647 59.1061 3.75037 59.0487C3.88427 58.9912 4.02918 58.964 4.17481 58.9688C4.3193 58.9554 4.46496 58.9744 4.60119 59.0244C4.73741 59.0744 4.86076 59.1542 4.96225 59.2579C5.16196 59.5018 5.26559 59.8103 5.25362 60.1253L5.27978 61.0667ZM6.59841 52.8807L1.39634 52.3726L1.57564 50.5303L0.487111 50.4264L0 55.4238L1.0848 55.5292L1.2641 53.6913L6.46617 54.1986L6.59841 52.8807ZM7.9798 45.3043L8.29583 43.9356L1.64662 44.6558L1.29697 46.1702L6.95851 49.7279L7.26333 48.4055L5.87895 47.5919L6.37802 45.4291L7.9798 45.3043ZM2.64026 45.7212L2.64698 45.6913L5.35 45.4836L4.97645 47.0921L2.64026 45.7212ZM12.4804 36.4437L10.3138 35.5681L10.0149 36.298L5.16846 34.3398L4.67313 35.5658L9.51959 37.524L8.47363 40.1015L3.62793 38.1426L3.13261 39.3686L8.98914 41.7354L10.8689 37.0839L12.0254 37.5516L12.4804 36.4437ZM14.5827 30.3301L15.2663 29.2035L9.86549 25.9275L9.20431 27.0167L11.3709 31.6861L11.344 31.731L7.68694 29.5128L7.00409 30.6394L12.4049 33.9155L13.0653 32.8262L10.8987 28.1591L10.9256 28.1142L14.5827 30.3301ZM16.6208 22.2061L15.9222 23.0421C15.7435 23.2851 15.4801 23.452 15.1841 23.5098C15.0473 23.5272 14.9083 23.5143 14.7771 23.4718C14.6459 23.4293 14.5257 23.3584 14.4251 23.264C14.315 23.1806 14.2245 23.0741 14.16 22.952C14.0955 22.8299 14.0584 22.6952 14.0515 22.5573C14.055 22.2572 14.1713 21.9694 14.3772 21.7511L15.0758 20.9152L16.6208 22.2061ZM16.7956 23.533L17.3769 22.8375L19.1273 24.2995L19.9693 23.2917L15.1214 19.2416L13.4598 21.2304C13.0461 21.6774 12.8177 22.2649 12.821 22.874C12.8316 23.15 12.9028 23.4202 13.0296 23.6656C13.1564 23.9109 13.3357 24.1253 13.5547 24.2935C13.8666 24.5651 14.2621 24.7217 14.6753 24.7373C15.0834 24.7512 15.4853 24.6356 15.8236 24.4071L16.6454 27.264L17.5831 26.1434L16.7956 23.533Z" fill="#F7C7A1"/>
</svg>
