<svg width="1214" height="214" viewBox="0 0 1214 214" fill="none" xmlns="http://www.w3.org/2000/svg">
<path d="M61.4111 209H60.4111V210H61.4111V209ZM61.4111 39.9277H62.4111V38.9277H61.4111V39.9277ZM1.65527 39.9277H0.655273V40.9277H1.65527V39.9277ZM1.65527 4.66895V3.66895H0.655273V4.66895H1.65527ZM164.072 4.66895H165.072V3.66895H164.072V4.66895ZM164.072 39.9277V40.9277H165.072V39.9277H164.072ZM104.175 39.9277V38.9277H103.175V39.9277H104.175ZM104.175 209V210H105.175V209H104.175ZM62.4111 209V39.9277H60.4111V209H62.4111ZM61.4111 38.9277H1.65527V40.9277H61.4111V38.9277ZM2.65527 39.9277V4.66895H0.655273V39.9277H2.65527ZM1.65527 5.66895H164.072V3.66895H1.65527V5.66895ZM163.072 4.66895V39.9277H165.072V4.66895H163.072ZM164.072 38.9277H104.175V40.9277H164.072V38.9277ZM103.175 39.9277V209H105.175V39.9277H103.175ZM104.175 208H61.4111V210H104.175V208ZM334.124 209H333.124V210H334.124V209ZM334.124 122.906H335.124V121.906H334.124V122.906ZM242.083 122.906V121.906H241.083V122.906H242.083ZM242.083 209V210H243.083V209H242.083ZM199.32 209H198.32V210H199.32V209ZM199.32 4.66895V3.66895H198.32V4.66895H199.32ZM242.083 4.66895H243.083V3.66895H242.083V4.66895ZM242.083 87.6475H241.083V88.6475H242.083V87.6475ZM334.124 87.6475V88.6475H335.124V87.6475H334.124ZM334.124 4.66895V3.66895H333.124V4.66895H334.124ZM376.888 4.66895H377.888V3.66895H376.888V4.66895ZM376.888 209V210H377.888V209H376.888ZM335.124 209V122.906H333.124V209H335.124ZM334.124 121.906H242.083V123.906H334.124V121.906ZM241.083 122.906V209H243.083V122.906H241.083ZM242.083 208H199.32V210H242.083V208ZM200.32 209V4.66895H198.32V209H200.32ZM199.32 5.66895H242.083V3.66895H199.32V5.66895ZM241.083 4.66895V87.6475H243.083V4.66895H241.083ZM242.083 88.6475H334.124V86.6475H242.083V88.6475ZM335.124 87.6475V4.66895H333.124V87.6475H335.124ZM334.124 5.66895H376.888V3.66895H334.124V5.66895ZM375.888 4.66895V209H377.888V4.66895H375.888ZM376.888 208H334.124V210H376.888V208ZM540.71 159.439L541.664 159.14L541.444 158.439H540.71V159.439ZM468.918 159.439V158.439H468.184L467.964 159.14L468.918 159.439ZM453.342 209V210H454.076L454.296 209.3L453.342 209ZM409.445 209L408.5 208.672L408.039 210H409.445V209ZM480.388 4.66895V3.66895H479.676L479.443 4.34096L480.388 4.66895ZM530.656 4.66895L531.601 4.34037L531.367 3.66895H530.656V4.66895ZM601.74 209V210H603.147L602.685 208.671L601.74 209ZM556.286 209L555.332 209.3L555.552 210H556.286V209ZM478.122 127.438L477.168 127.139L476.761 128.438H478.122V127.438ZM531.506 127.438V128.438H532.867L532.46 127.139L531.506 127.438ZM505.309 43.751L506.264 43.4522L506.044 42.751H505.309V43.751ZM504.318 43.751V42.751H503.583L503.364 43.4522L504.318 43.751ZM540.71 158.439H468.918V160.439H540.71V158.439ZM467.964 159.14L452.388 208.7L454.296 209.3L469.872 159.739L467.964 159.14ZM453.342 208H409.445V210H453.342V208ZM410.39 209.328L481.332 4.99693L479.443 4.34096L408.5 208.672L410.39 209.328ZM480.388 5.66895H530.656V3.66895H480.388V5.66895ZM529.712 4.99752L600.796 209.329L602.685 208.671L531.601 4.34037L529.712 4.99752ZM601.74 208H556.286V210H601.74V208ZM557.24 208.7L541.664 159.14L539.756 159.739L555.332 209.3L557.24 208.7ZM478.122 128.438H531.506V126.438H478.122V128.438ZM532.46 127.139L506.264 43.4522L504.355 44.0497L530.551 127.736L532.46 127.139ZM505.309 42.751H504.318V44.751H505.309V42.751ZM503.364 43.4522L477.168 127.139L479.076 127.736L505.273 44.0497L503.364 43.4522ZM634.297 209H633.297V210H634.297V209ZM634.297 4.66895V3.66895H633.297V4.66895H634.297ZM669.981 4.66895L670.793 4.08624L670.494 3.66895H669.981V4.66895ZM765.42 137.774L764.607 138.357L764.907 138.774H765.42V137.774ZM766.553 137.774V138.774H767.553V137.774H766.553ZM766.553 4.66895V3.66895H765.553V4.66895H766.553ZM807.476 4.66895H808.476V3.66895H807.476V4.66895ZM807.476 209V210H808.476V209H807.476ZM772.075 209L771.262 209.581L771.561 210H772.075V209ZM676.494 75.1865L677.308 74.6053L677.009 74.1865H676.494V75.1865ZM675.22 75.1865V74.1865H674.22V75.1865H675.22ZM675.22 209V210H676.22V209H675.22ZM635.297 209V4.66895H633.297V209H635.297ZM634.297 5.66895H669.981V3.66895H634.297V5.66895ZM669.168 5.25166L764.607 138.357L766.233 137.192L670.793 4.08624L669.168 5.25166ZM765.42 138.774H766.553V136.774H765.42V138.774ZM767.553 137.774V4.66895H765.553V137.774H767.553ZM766.553 5.66895H807.476V3.66895H766.553V5.66895ZM806.476 4.66895V209H808.476V4.66895H806.476ZM807.476 208H772.075V210H807.476V208ZM772.889 208.419L677.308 74.6053L675.681 75.7678L771.262 209.581L772.889 208.419ZM676.494 74.1865H675.22V76.1865H676.494V74.1865ZM674.22 75.1865V209H676.22V75.1865H674.22ZM675.22 208H634.297V210H675.22V208ZM853.202 209H852.202V210H853.202V209ZM853.202 4.66895V3.66895H852.202V4.66895H853.202ZM895.965 4.66895H896.965V3.66895H895.965V4.66895ZM895.965 97.8428H894.965V98.8428H895.965V97.8428ZM897.24 97.8428V98.8428H897.712L898.012 98.4786L897.24 97.8428ZM973.988 4.66895V3.66895H973.516L973.216 4.03316L973.988 4.66895ZM1021.57 4.66895L1022.33 5.3096L1023.7 3.66895H1021.57V4.66895ZM945.951 95.2939L945.183 94.6533L944.689 95.2452L945.136 95.8735L945.951 95.2939ZM1026.81 209V210H1028.74L1027.62 208.42L1026.81 209ZM975.687 209L974.872 209.579L975.171 210H975.687V209ZM915.082 123.614L915.897 123.035L915.145 121.976L914.313 122.974L915.082 123.614ZM895.965 146.554L895.197 145.914L894.965 146.192V146.554H895.965ZM895.965 209V210H896.965V209H895.965ZM854.202 209V4.66895H852.202V209H854.202ZM853.202 5.66895H895.965V3.66895H853.202V5.66895ZM894.965 4.66895V97.8428H896.965V4.66895H894.965ZM895.965 98.8428H897.24V96.8428H895.965V98.8428ZM898.012 98.4786L974.76 5.30473L973.216 4.03316L896.468 97.207L898.012 98.4786ZM973.988 5.66895H1021.57V3.66895H973.988V5.66895ZM1020.8 4.02829L945.183 94.6533L946.719 95.9346L1022.33 5.3096L1020.8 4.02829ZM945.136 95.8735L1025.99 209.58L1027.62 208.42L946.766 94.7144L945.136 95.8735ZM1026.81 208H975.687V210H1026.81V208ZM976.503 208.421L915.897 123.035L914.266 124.193L974.872 209.579L976.503 208.421ZM914.313 122.974L895.197 145.914L896.734 147.194L915.85 124.254L914.313 122.974ZM894.965 146.554V209H896.965V146.554H894.965ZM895.965 208H853.202V210H895.965V208ZM1088.67 150.802L1089.67 150.689L1089.57 149.802H1088.67V150.802ZM1101.98 171.051L1101.44 171.887L1101.44 171.889L1101.98 171.051ZM1158.62 171.334L1158.06 170.507L1158.06 170.509L1158.62 171.334ZM1161.32 136.783L1161.92 135.99L1161.32 136.783ZM1134.84 126.588L1135.05 125.612L1135.05 125.611L1134.84 126.588ZM1108.21 120.782L1108.43 119.805L1108.42 119.804L1108.21 120.782ZM1073.95 18.2627L1073.33 17.4764L1073.33 17.4794L1073.95 18.2627ZM1186.8 17.9795L1187.43 17.1976L1187.43 17.1961L1186.8 17.9795ZM1208.33 62.584V63.584H1209.35L1209.33 62.5637L1208.33 62.584ZM1168.25 62.584L1167.26 62.6607L1167.33 63.584H1168.25V62.584ZM1156.78 42.1934L1157.37 41.3804L1157.36 41.3789L1156.78 42.1934ZM1104.82 41.7686L1105.4 42.5839L1105.4 42.5799L1104.82 41.7686ZM1102.98 75.3281L1102.38 76.1281L1102.38 76.1325L1102.39 76.1369L1102.98 75.3281ZM1128.46 85.0986L1128.24 86.0728L1128.25 86.075L1128.26 86.077L1128.46 85.0986ZM1153.24 90.3379L1153.45 89.3596L1153.45 89.3595L1153.24 90.3379ZM1197.99 110.729L1197.29 111.439L1197.29 111.443L1197.99 110.729ZM1189.64 194.981L1189.02 194.192L1189.02 194.195L1189.64 194.981ZM1070.41 196.114L1069.8 196.912L1069.81 196.913L1070.41 196.114ZM1047.47 150.802V149.802H1046.43L1046.47 150.836L1047.47 150.802ZM1087.68 150.915C1088.66 159.559 1093.3 166.557 1101.44 171.887L1102.53 170.214C1094.81 165.161 1090.57 158.659 1089.67 150.689L1087.68 150.915ZM1101.44 171.889C1109.47 177.114 1119.3 179.697 1130.87 179.697V177.697C1119.6 177.697 1110.17 175.183 1102.53 170.213L1101.44 171.889ZM1130.87 179.697C1142.34 179.697 1151.81 177.212 1159.19 172.159L1158.06 170.509C1151.1 175.274 1142.06 177.697 1130.87 177.697V179.697ZM1159.19 172.161C1166.5 167.189 1170.25 160.716 1170.25 152.784H1168.25C1168.25 159.957 1164.91 165.85 1158.06 170.507L1159.19 172.161ZM1170.25 152.784C1170.25 145.862 1167.45 140.237 1161.92 135.99L1160.71 137.576C1165.75 141.448 1168.25 146.49 1168.25 152.784H1170.25ZM1161.92 135.99C1156.46 131.793 1147.46 128.357 1135.05 125.612L1134.62 127.564C1146.95 130.294 1155.6 133.654 1160.71 137.576L1161.92 135.99ZM1135.05 125.611L1108.43 119.805L1108 121.759L1134.62 127.565L1135.05 125.611ZM1108.42 119.804C1089.8 115.816 1075.95 109.119 1066.77 99.796C1057.6 90.4961 1053 78.4995 1053 63.7168H1051C1051 78.9536 1055.76 91.4777 1065.34 101.2C1074.89 110.898 1089.16 117.724 1108.01 121.76L1108.42 119.804ZM1053 63.7168C1053 45.3303 1060.18 30.4675 1074.57 19.046L1073.33 17.4794C1058.45 29.2805 1051 44.7205 1051 63.7168H1053ZM1074.57 19.049C1088.89 7.79555 1107.39 2.12891 1130.16 2.12891V0.128906C1107.05 0.128906 1088.08 5.88479 1073.33 17.4764L1074.57 19.049ZM1130.16 2.12891C1153.61 2.12891 1172.25 7.70725 1186.18 18.7629L1187.43 17.1961C1173.04 5.78428 1153.92 0.128906 1130.16 0.128906V2.12891ZM1186.18 18.7614C1199.91 29.7068 1206.96 44.2905 1207.33 62.6043L1209.33 62.5637C1208.94 43.6835 1201.64 28.5308 1187.43 17.1976L1186.18 18.7614ZM1208.33 61.584H1168.25V63.584H1208.33V61.584ZM1169.25 62.5073C1168.57 53.6231 1164.59 46.5562 1157.37 41.3804L1156.2 43.0063C1162.95 47.837 1166.62 54.3639 1167.26 62.6607L1169.25 62.5073ZM1157.36 41.3789C1150.26 36.3202 1141.22 33.8301 1130.3 33.8301V35.8301C1140.92 35.8301 1149.52 38.2489 1156.2 43.0078L1157.36 41.3789ZM1130.3 33.8301C1119.59 33.8301 1110.87 36.1736 1104.23 40.9572L1105.4 42.5799C1111.6 38.1122 1119.87 35.8301 1130.3 35.8301V33.8301ZM1104.24 40.9532C1097.48 45.7536 1094.05 52.1377 1094.05 60.0352H1096.05C1096.05 52.8285 1099.13 47.0348 1105.4 42.5839L1104.24 40.9532ZM1094.05 60.0352C1094.05 66.602 1096.86 71.9878 1102.38 76.1281L1103.58 74.5281C1098.52 70.7388 1096.05 65.9293 1096.05 60.0352H1094.05ZM1102.39 76.1369C1107.75 80.0339 1116.4 83.3269 1128.24 86.0728L1128.69 84.1245C1116.93 81.3951 1108.59 78.1744 1103.56 74.5194L1102.39 76.1369ZM1128.26 86.077L1153.04 91.3163L1153.45 89.3595L1128.67 84.1203L1128.26 86.077ZM1153.04 91.3161C1173.44 95.6403 1188.14 102.381 1197.29 111.439L1198.69 110.018C1189.15 100.574 1174.02 93.7203 1153.45 89.3596L1153.04 91.3161ZM1197.29 111.443C1206.41 120.376 1211.01 132.466 1211.01 147.828H1213.01C1213.01 132.038 1208.26 119.395 1198.69 110.014L1197.29 111.443ZM1211.01 147.828C1211.01 167.361 1203.68 182.781 1189.02 194.192L1190.25 195.771C1205.42 183.959 1213.01 167.943 1213.01 147.828H1211.01ZM1189.02 194.195C1174.33 205.722 1154.42 211.54 1129.17 211.54V213.54C1154.71 213.54 1175.11 207.652 1190.25 195.768L1189.02 194.195ZM1129.17 211.54C1104.67 211.54 1085.32 206.096 1071.01 195.316L1069.81 196.913C1084.57 208.033 1104.39 213.54 1129.17 213.54V211.54ZM1071.01 195.316C1056.63 184.462 1049.12 169.645 1048.47 150.767L1046.47 150.836C1047.14 170.285 1054.92 185.676 1069.8 196.912L1071.01 195.316ZM1047.47 151.802H1088.67V149.802H1047.47V151.802Z" fill="#F5B4B4"/>
</svg>
