<svg width="158" height="157" viewBox="0 0 158 157" fill="none" xmlns="http://www.w3.org/2000/svg">
<path fill-rule="evenodd" clip-rule="evenodd" d="M52.6671 13.5344C53.5175 13.2271 54.2342 12.6331 54.694 11.8544C55.1146 11.1126 55.227 10.2353 55.007 9.41144L53.392 10.0604C53.4558 10.4917 53.3671 10.9317 53.1411 11.3044C52.8975 11.6865 52.5353 11.978 52.11 12.1344C51.8251 12.2605 51.5136 12.3147 51.2028 12.292C50.8921 12.2693 50.5916 12.1706 50.328 12.0045C49.7285 11.5538 49.2641 10.9473 48.9854 10.251C48.7066 9.5547 48.6241 8.7953 48.747 8.05542C48.823 7.75583 48.9709 7.47932 49.1779 7.24982C49.3849 7.02032 49.6448 6.84475 49.935 6.73841C50.3557 6.55955 50.8248 6.52922 51.265 6.65241C51.6978 6.78334 52.0731 7.05775 52.329 7.43042L53.944 6.78144C53.5361 6.01694 52.8428 5.4444 52.015 5.18842C51.1446 4.92271 50.2079 4.97699 49.374 5.34143C48.8604 5.5197 48.3917 5.80753 48.0004 6.185C47.6091 6.56247 47.3046 7.02052 47.108 7.52741C46.8026 8.65248 46.8715 9.84642 47.3045 10.9288C47.7375 12.0113 48.5109 12.9234 49.508 13.5274C50.0019 13.7572 50.5399 13.877 51.0847 13.8784C51.6294 13.8797 52.168 13.7627 52.663 13.5354L52.6671 13.5344ZM66.5161 9.33442L64.646 1.08844L57.566 2.69342L59.435 10.9395L61.1671 10.5465L59.621 3.72944L63.25 2.90644L64.796 9.72443L66.5161 9.33442ZM75.897 8.42041L77.773 8.29645L74.273 0.0544478L72.197 0.193425L69.83 8.82441L71.642 8.70343L72.149 6.61445L75.113 6.41443L75.897 8.42041ZM73.297 1.74042H73.338L74.649 5.12342L72.449 5.27045L73.297 1.74042ZM84.397 8.83442C85.2955 8.93959 86.2025 8.72737 86.961 8.23444C87.6689 7.75848 88.1614 7.02326 88.332 6.18744L86.597 6.04743C86.4615 6.46148 86.1856 6.81519 85.817 7.04743C85.4289 7.28143 84.9745 7.38122 84.524 7.33143C84.2129 7.31644 83.9101 7.22551 83.6422 7.06653C83.3742 6.90756 83.1493 6.68538 82.987 6.41944C82.6133 5.76013 82.4664 4.99632 82.569 4.24543C82.59 3.49104 82.8596 2.76473 83.336 2.17945C83.5377 1.9453 83.7936 1.76386 84.0813 1.65094C84.369 1.53802 84.6799 1.49702 84.987 1.53144C85.443 1.5591 85.8761 1.74106 86.215 2.04743C86.544 2.35801 86.7574 2.77137 86.82 3.21943L88.5551 3.35944C88.5311 2.49348 88.1663 1.67197 87.54 1.07343C86.8802 0.446659 86.0179 0.0767201 85.109 0.030461C84.5704 -0.0385742 84.0233 0.0100601 83.5054 0.173039C82.9874 0.336018 82.511 0.60943 82.109 0.974431C81.3336 1.84539 80.8628 2.94504 80.7678 4.10724C80.6727 5.26945 80.9585 6.43105 81.582 7.41645C81.9214 7.84234 82.3493 8.18941 82.836 8.43372C83.3227 8.67803 83.8567 8.81373 84.401 8.83143L84.397 8.83442ZM97.091 10.8654L98.804 11.2854L100.815 3.07245L99.159 2.67243L94.069 7.31946L94.001 7.30341L95.363 1.74244L93.65 1.32343L91.639 9.53541L93.295 9.94141L98.383 5.29944L98.451 5.31641L97.091 10.8654ZM109.448 12.5435C109.597 12.2178 109.67 11.8629 109.662 11.505C109.655 11.1472 109.567 10.7956 109.405 10.4764C109.038 9.78354 108.427 9.25174 107.69 8.98444L106.174 8.35541L106.832 6.76941L110.388 8.24445L110.947 6.8974L105.757 4.74445L102.525 12.5515L105.725 13.8814C106.425 14.2091 107.225 14.2571 107.959 14.0154C108.3 13.8934 108.611 13.6982 108.869 13.4435C109.126 13.1889 109.326 12.8811 109.452 12.5414L109.448 12.5435ZM104.692 11.9274L105.658 9.60041L106.816 10.0804C107.205 10.2136 107.537 10.4744 107.759 10.8204C107.842 10.9788 107.886 11.1543 107.889 11.333C107.892 11.5116 107.853 11.6884 107.776 11.8494C107.718 12.0161 107.621 12.1666 107.493 12.2883C107.365 12.41 107.209 12.4995 107.04 12.5494C106.641 12.638 106.223 12.5879 105.856 12.4074L104.692 11.9274ZM119.346 11.2274C118.889 10.9171 118.371 10.7082 117.827 10.6145C117.283 10.5209 116.725 10.5447 116.191 10.6845C115.107 11.0927 114.19 11.8521 113.588 12.8416C112.985 13.8311 112.731 14.9938 112.866 16.1444C113.16 17.2107 113.85 18.1247 114.794 18.7006C115.739 19.2765 116.867 19.471 117.95 19.2444C119.034 18.8366 119.951 18.0775 120.554 17.0881C121.156 16.0987 121.41 14.936 121.275 13.7854C121.155 13.2465 120.92 12.7397 120.587 12.299C120.255 11.8582 119.831 11.4939 119.346 11.2304V11.2274ZM118.578 12.4884C118.855 12.6452 119.09 12.8659 119.264 13.132C119.438 13.3982 119.545 13.7021 119.578 14.0184C119.593 14.7669 119.394 15.5039 119.004 16.1431C118.614 16.7822 118.05 17.2968 117.378 17.6264C117.079 17.7298 116.761 17.7659 116.447 17.7322C116.132 17.6984 115.829 17.5956 115.559 17.4311C115.289 17.2666 115.058 17.0444 114.884 16.7805C114.709 16.5166 114.595 16.2175 114.55 15.9044C114.535 15.157 114.734 14.4208 115.124 13.7829C115.514 13.145 116.078 12.632 116.75 12.3044C117.047 12.1889 117.366 12.1457 117.683 12.1786C117.999 12.2115 118.304 12.3194 118.57 12.4934L118.578 12.4884ZM130.855 32.2004C131.431 32.8979 132.232 33.3726 133.12 33.5424C133.96 33.6877 134.824 33.4974 135.526 33.0125L134.37 31.7124C133.985 31.9175 133.541 31.9822 133.114 31.8955C132.672 31.7956 132.275 31.5532 131.985 31.2054C131.77 30.9797 131.614 30.7046 131.53 30.4043C131.447 30.104 131.439 29.7877 131.506 29.4834C131.728 28.7671 132.142 28.1255 132.704 27.6283C133.265 27.1311 133.952 26.7974 134.69 26.6635C134.998 26.6338 135.308 26.6797 135.594 26.7971C135.88 26.9146 136.133 27.1 136.331 27.3374C136.641 27.6733 136.828 28.1045 136.861 28.5604C136.883 29.012 136.751 29.4577 136.487 29.8244L137.642 31.1245C138.224 30.4829 138.53 29.6371 138.491 28.7714C138.448 27.8624 138.081 26.9987 137.457 26.3364C137.117 25.9122 136.688 25.5672 136.2 25.3254C135.713 25.0836 135.179 24.9509 134.635 24.9364C133.473 25.029 132.372 25.4973 131.5 26.2705C130.627 27.0437 130.03 28.0798 129.798 29.2224C129.748 29.765 129.817 30.3119 130 30.8252C130.182 31.3385 130.474 31.8061 130.855 32.1954V32.2004ZM139.501 43.8204L146.626 39.2684L142.717 33.1505L135.592 37.7034L136.548 39.2034L142.439 35.4395L144.439 38.5744L138.549 42.3384L139.501 43.8204ZM143.533 52.3204L144.286 54.0435L150.856 47.9624L150.025 46.0515L141.102 46.7514L141.829 48.4164L143.966 48.1854L145.156 50.9074L143.533 52.3204ZM148.933 47.6115L148.95 47.6494L146.211 50.0294L145.326 48.0054L148.933 47.6115ZM146.005 60.4735C146.207 61.3551 146.711 62.1384 147.429 62.6884C148.116 63.1933 148.973 63.4087 149.817 63.2885L149.367 61.6074C148.931 61.6187 148.505 61.4772 148.162 61.2075C147.812 60.9202 147.566 60.526 147.462 60.0855C147.372 59.7873 147.356 59.4714 147.416 59.1656C147.476 58.8598 147.61 58.5733 147.806 58.3314C148.325 57.7905 148.983 57.4024 149.708 57.2093C150.433 57.0162 151.196 57.0256 151.916 57.2365C152.204 57.3479 152.461 57.5279 152.664 57.7611C152.867 57.9943 153.01 58.2734 153.081 58.5744C153.208 59.0136 153.182 59.483 153.007 59.9055C152.824 60.3189 152.507 60.6583 152.107 60.8684L152.557 62.5494C153.365 62.2365 154.016 61.6173 154.37 60.8264C154.739 59.9941 154.798 59.0575 154.537 58.1854C154.421 57.6539 154.191 57.1539 153.863 56.72C153.535 56.2861 153.117 55.9286 152.637 55.6724C151.556 55.2346 150.363 55.1604 149.236 55.4609C148.109 55.7615 147.111 56.4205 146.392 57.3384C146.105 57.801 145.921 58.3205 145.854 58.8609C145.788 59.4013 145.839 59.9498 146.005 60.4684V60.4735ZM148.345 73.1035L148.525 74.8574L156.936 73.9964L156.762 72.2965L150.677 69.0614L150.67 68.9915L156.365 68.4085L156.185 66.6544L147.774 67.5154L147.947 69.2155L154.027 72.4514L154.034 72.5205L148.345 73.1035ZM150.935 85.3234C151.292 85.3528 151.651 85.3015 151.985 85.1734C152.319 85.0453 152.62 84.8437 152.866 84.5834C153.394 84.0034 153.687 83.2484 153.69 82.4644L153.769 80.8254L155.484 80.9085L155.298 84.7534L156.755 84.8234L157.026 79.2114L148.581 78.8034L148.414 82.2684C148.342 83.0385 148.567 83.8071 149.043 84.4165C149.273 84.6962 149.562 84.9223 149.889 85.0789C150.216 85.2356 150.573 85.319 150.935 85.3234ZM149.906 80.6384L152.423 80.7604L152.362 82.0134C152.369 82.4242 152.236 82.825 151.985 83.1505C151.864 83.2817 151.714 83.3829 151.547 83.4461C151.38 83.5093 151.201 83.5327 151.023 83.5144C150.846 83.5164 150.671 83.4762 150.513 83.3971C150.354 83.318 150.217 83.2022 150.112 83.0595C149.894 82.7137 149.799 82.3038 149.845 81.8974L149.906 80.6384ZM155.538 94.1614C155.675 93.6265 155.696 93.0685 155.599 92.5248C155.503 91.9812 155.291 91.4645 154.978 91.0094C154.227 90.1274 153.201 89.5224 152.066 89.291C150.931 89.0595 149.751 89.2149 148.714 89.7324C147.812 90.3718 147.187 91.3305 146.966 92.4138C146.745 93.4972 146.945 94.624 147.525 95.5654C148.277 96.447 149.302 97.0517 150.437 97.2831C151.572 97.5146 152.752 97.3594 153.789 96.8424C154.255 96.5461 154.652 96.1535 154.954 95.6911C155.255 95.2287 155.454 94.7072 155.538 94.1614ZM154.091 93.8665C154.038 94.1803 153.91 94.4769 153.719 94.7313C153.528 94.9857 153.278 95.1904 152.991 95.3284C152.292 95.5958 151.532 95.6584 150.799 95.5089C150.066 95.3594 149.39 95.004 148.852 94.4844C148.653 94.2384 148.511 93.9514 148.436 93.6441C148.361 93.3368 148.355 93.0167 148.419 92.7067C148.482 92.3968 148.613 92.1046 148.802 91.8511C148.991 91.5977 149.234 91.3891 149.513 91.2404C150.212 90.9721 150.973 90.9096 151.706 91.0602C152.44 91.2108 153.114 91.5683 153.651 92.0905C153.861 92.3298 154.011 92.6159 154.087 92.9249C154.164 93.2339 154.165 93.5568 154.091 93.8665ZM139.681 112.089C139.219 112.867 139.042 113.781 139.181 114.674C139.327 115.514 139.796 116.264 140.488 116.761L141.325 115.235C141.002 114.942 140.792 114.546 140.731 114.114C140.675 113.663 140.77 113.206 141.001 112.814C141.142 112.537 141.349 112.298 141.603 112.118C141.858 111.938 142.152 111.824 142.461 111.784C143.216 111.712 143.973 111.891 144.616 112.292C145.296 112.619 145.849 113.162 146.188 113.836C146.319 114.116 146.38 114.424 146.366 114.733C146.352 115.042 146.262 115.342 146.105 115.608C145.893 116.013 145.55 116.334 145.131 116.517C144.714 116.691 144.249 116.717 143.815 116.59L142.978 118.116C143.778 118.449 144.676 118.452 145.478 118.125C146.32 117.779 147.01 117.143 147.424 116.332C147.708 115.869 147.888 115.349 147.951 114.809C148.014 114.269 147.959 113.722 147.79 113.205C147.312 112.142 146.501 111.262 145.479 110.7C144.457 110.139 143.28 109.925 142.126 110.091C141.599 110.227 141.107 110.475 140.685 110.82C140.263 111.164 139.921 111.596 139.682 112.085L139.681 112.089ZM131.624 124.155L138.303 129.339L142.754 123.604L136.075 118.42L134.987 119.82L140.508 124.106L138.227 127.046L132.705 122.759L131.624 124.155ZM124.983 130.802L123.614 132.092L131.553 136.229L133.067 134.803L129.406 126.635L128.084 127.881L129.021 129.816L126.859 131.853L124.983 130.802ZM131.237 134.302L131.208 134.331L128.044 132.553L129.652 131.039L131.237 134.302ZM118.144 135.888C117.384 136.378 116.818 137.116 116.544 137.977C116.299 138.795 116.386 139.675 116.784 140.429L118.213 139.436C118.055 139.03 118.044 138.582 118.181 138.168C118.333 137.742 118.621 137.376 119 137.128C119.25 136.942 119.542 136.82 119.85 136.773C120.158 136.726 120.473 136.755 120.767 136.857C121.474 137.13 122.071 137.627 122.467 138.272C122.93 138.868 123.183 139.601 123.186 140.355C123.179 140.664 123.096 140.967 122.945 141.237C122.795 141.507 122.58 141.736 122.321 141.904C121.951 142.172 121.501 142.306 121.045 142.284C120.594 142.254 120.167 142.07 119.834 141.763L118.404 142.755C118.972 143.41 119.775 143.813 120.639 143.878C121.547 143.944 122.448 143.682 123.18 143.141C123.641 142.853 124.034 142.468 124.331 142.013C124.628 141.558 124.823 141.043 124.902 140.505C124.948 139.34 124.614 138.192 123.95 137.233C123.286 136.275 122.328 135.558 121.221 135.192C120.688 135.079 120.137 135.083 119.606 135.204C119.074 135.325 118.576 135.56 118.144 135.892V135.888ZM107.063 142.367L105.474 143.131L109.135 150.752L110.672 150.013L111.652 143.191L111.716 143.161L114.195 148.321L115.785 147.557L112.123 139.936L110.586 140.674L109.603 147.491L109.54 147.521L107.063 142.367ZM96.431 148.925C96.523 149.271 96.6917 149.592 96.9247 149.864C97.1578 150.136 97.4491 150.352 97.777 150.495C98.5003 150.798 99.3101 150.82 100.049 150.558L101.619 150.082L102.119 151.725L98.435 152.842L98.859 154.242L104.236 152.61L101.781 144.519L98.462 145.526C97.7124 145.718 97.0642 146.188 96.65 146.841C96.4639 147.152 96.3479 147.5 96.3102 147.861C96.2726 148.221 96.3141 148.586 96.432 148.928L96.431 148.925ZM100.497 146.381L101.228 148.792L100.028 149.156C99.6427 149.302 99.2194 149.311 98.828 149.183C98.6637 149.113 98.518 149.006 98.4024 148.87C98.2868 148.734 98.2045 148.573 98.162 148.399C98.1005 148.234 98.0794 148.055 98.1006 147.88C98.1219 147.704 98.1847 147.536 98.284 147.389C98.535 147.068 98.8876 146.842 99.284 146.747L100.497 146.381ZM89.639 156.224C90.1889 156.174 90.7216 156.007 91.2014 155.734C91.6813 155.46 92.0971 155.088 92.421 154.64C92.9992 153.636 93.2248 152.468 93.0616 151.321C92.8985 150.174 92.3562 149.114 91.521 148.311C90.6163 147.675 89.5035 147.408 88.4086 147.563C87.3136 147.718 86.3188 148.283 85.626 149.145C85.0478 150.15 84.8222 151.318 84.9853 152.466C85.1484 153.613 85.6908 154.672 86.526 155.475C86.9615 155.815 87.4646 156.058 88.0015 156.187C88.5384 156.316 89.0967 156.329 89.639 156.224ZM89.432 154.762C89.1185 154.818 88.7964 154.797 88.4926 154.702C88.1887 154.607 87.9121 154.441 87.686 154.216C87.1996 153.648 86.8854 152.952 86.7803 152.211C86.6753 151.47 86.7838 150.715 87.093 150.033C87.2584 149.764 87.4813 149.534 87.7457 149.361C88.0102 149.187 88.3097 149.074 88.6228 149.03C88.9359 148.986 89.2551 149.011 89.5573 149.104C89.8595 149.197 90.1373 149.356 90.371 149.569C90.8583 150.138 91.1726 150.834 91.2766 151.576C91.3806 152.317 91.2701 153.073 90.958 153.753C90.8026 154.031 90.583 154.268 90.3176 154.443C90.0521 154.619 89.7484 154.728 89.432 154.762ZM67.425 147.336C66.5382 147.163 65.6187 147.305 64.825 147.736C64.0836 148.158 63.5374 148.853 63.304 149.673L65.023 149.944C65.1897 149.541 65.4917 149.209 65.877 149.004C66.2815 148.801 66.7419 148.736 67.187 148.819C67.4964 148.857 67.7918 148.97 68.0471 149.149C68.3024 149.328 68.5098 149.567 68.651 149.844C68.9345 150.539 69.0222 151.297 68.9046 152.038C68.787 152.778 68.4686 153.472 67.984 154.044C67.7647 154.264 67.4952 154.426 67.1989 154.517C66.9025 154.608 66.5884 154.625 66.284 154.566C65.8321 154.51 65.4143 154.297 65.1036 153.964C64.7928 153.632 64.609 153.2 64.584 152.745L62.8651 152.475C62.824 153.341 63.1258 154.187 63.705 154.831C64.316 155.506 65.1482 155.94 66.051 156.054C66.5834 156.165 67.1334 156.158 67.6628 156.034C68.1923 155.91 68.6885 155.673 69.117 155.338C69.9558 154.528 70.5081 153.467 70.6903 152.315C70.8725 151.164 70.6748 149.984 70.127 148.954C69.8212 148.505 69.4215 148.127 68.9553 147.846C68.4892 147.566 67.9677 147.39 67.427 147.331L67.425 147.336ZM53.367 143.845L50.747 151.884L57.647 154.134L60.267 146.095L58.579 145.545L56.413 152.191L52.876 151.038L55.0421 144.392L53.367 143.845ZM44.867 139.826L43.192 138.971L41.965 147.839L43.8181 148.785L50.278 142.585L48.66 141.759L47.153 143.292L44.508 141.941L44.867 139.826ZM43.6671 146.894L43.631 146.875L44.241 143.298L46.208 144.298L43.6671 146.894ZM37.7791 135.094C37.0634 134.541 36.177 134.256 35.273 134.286C34.4213 134.331 33.6209 134.707 33.044 135.335L34.459 136.348C34.7884 136.063 35.2072 135.902 35.643 135.892C36.0961 135.892 36.5368 136.041 36.897 136.315C37.1565 136.488 37.3696 136.722 37.5175 136.996C37.6654 137.27 37.7435 137.577 37.745 137.888C37.6869 138.636 37.4248 139.354 36.9872 139.963C36.5496 140.572 35.9532 141.05 35.263 141.343C34.9695 141.44 34.6568 141.464 34.352 141.413C34.0472 141.361 33.7596 141.236 33.514 141.048C33.1355 140.795 32.8581 140.417 32.7301 139.98C32.6021 139.543 32.6318 139.075 32.814 138.657L31.399 137.644C30.9734 138.399 30.863 139.291 31.092 140.126C31.3351 141.003 31.8838 141.765 32.639 142.272C33.0655 142.61 33.5602 142.851 34.0889 142.978C34.6177 143.105 35.1678 143.116 35.701 143.009C36.8141 142.662 37.7838 141.962 38.4636 141.014C39.1434 140.067 39.4963 138.924 39.469 137.758C39.3974 137.219 39.2095 136.701 38.918 136.241C38.6266 135.781 38.2386 135.39 37.781 135.094H37.7791ZM27.942 126.825L26.688 125.585L20.743 131.597L21.955 132.797L28.71 131.425L28.76 131.474L24.734 135.545L25.988 136.785L31.934 130.773L30.721 129.573L23.971 130.941L23.921 130.891L27.942 126.825ZM18.179 119.031C17.8841 119.235 17.6391 119.503 17.4621 119.815C17.2851 120.126 17.1809 120.474 17.157 120.831C17.1169 121.614 17.3692 122.384 17.8651 122.991L18.844 124.308L17.467 125.332L15.1671 122.243L13.997 123.114L17.35 127.623L24.134 122.577L22.064 119.793C21.6309 119.153 20.969 118.702 20.2141 118.533C19.8586 118.463 19.492 118.471 19.1401 118.558C18.7882 118.644 18.4595 118.807 18.177 119.033L18.179 119.031ZM21.947 121.997L19.926 123.497L19.177 122.491C18.911 122.178 18.7594 121.784 18.747 121.373C18.7569 121.195 18.8083 121.021 18.8972 120.866C18.9861 120.711 19.11 120.579 19.259 120.48C19.3945 120.367 19.5551 120.287 19.7277 120.247C19.9002 120.208 20.0796 120.21 20.251 120.254C20.6394 120.383 20.9723 120.64 21.195 120.983L21.947 121.997ZM9.00201 115.097C9.23561 115.598 9.57358 116.042 9.99323 116.401C10.4129 116.76 10.9045 117.025 11.435 117.178C12.5753 117.383 13.7514 117.2 14.7756 116.659C15.7998 116.117 16.6132 115.248 17.086 114.19C17.3779 113.124 17.2527 111.986 16.736 111.009C16.2192 110.031 15.3497 109.287 14.304 108.927C13.1637 108.723 11.9878 108.906 10.9637 109.448C9.93955 109.989 9.1261 110.858 8.65302 111.915C8.48064 112.44 8.42259 112.995 8.48279 113.544C8.54299 114.093 8.72004 114.623 9.00201 115.097ZM10.308 114.407C10.1499 114.131 10.0603 113.821 10.0468 113.503C10.0332 113.185 10.096 112.868 10.23 112.579C10.6 111.929 11.148 111.397 11.8096 111.048C12.4713 110.698 13.2191 110.545 13.965 110.605C14.2746 110.67 14.5662 110.801 14.819 110.991C15.0718 111.181 15.2796 111.425 15.4274 111.704C15.5752 111.984 15.6594 112.292 15.674 112.608C15.6886 112.924 15.6333 113.239 15.512 113.531C15.1422 114.183 14.5936 114.714 13.9312 115.063C13.2687 115.412 12.5201 115.564 11.774 115.5C11.4601 115.449 11.1631 115.322 10.908 115.132C10.6529 114.942 10.4472 114.694 10.308 114.407ZM9.88403 91.2014C9.74922 90.3072 9.30639 89.488 8.63202 88.8854C7.98643 88.3283 7.14798 88.0468 6.297 88.1014L6.61804 89.8124C7.05348 89.8338 7.46769 90.0068 7.789 90.3015C8.11686 90.6145 8.33264 91.0266 8.40302 91.4744C8.47106 91.7784 8.46332 92.0944 8.38049 92.3947C8.29766 92.695 8.14231 92.9703 7.92804 93.1964C7.36901 93.6965 6.68348 94.0337 5.94611 94.1713C5.20873 94.3088 4.44776 94.2414 3.74603 93.9764C3.46702 93.8435 3.22463 93.6445 3.03992 93.3967C2.8552 93.1489 2.73374 92.8598 2.68604 92.5545C2.58735 92.1098 2.64801 91.6445 2.85748 91.24C3.06695 90.8355 3.4119 90.5175 3.83203 90.3414L3.51105 88.6314C2.68137 88.8818 1.98435 89.4501 1.57202 90.2124C1.1411 91.014 1.0113 91.9434 1.20605 92.8325C1.2804 93.3709 1.47092 93.8866 1.76447 94.3441C2.05801 94.8015 2.44752 95.1896 2.90601 95.4815C3.95039 95.9998 5.1351 96.1643 6.28119 95.95C7.42728 95.7356 8.47254 95.1542 9.25903 94.2935C9.58066 93.854 9.80295 93.3498 9.91052 92.8159C10.0181 92.2821 10.0084 91.7312 9.88202 91.2014H9.88403ZM8.45105 76.7774L0 77.0154L0.200012 84.2724L8.651 84.0344L8.60101 82.2594L1.61401 82.4594L1.51404 78.7394L8.50201 78.5394L8.45105 76.7774ZM9.35101 67.4035L9.58801 65.5374L0.829041 67.3884L0.567017 69.4525L8.58405 73.4304L8.81305 71.6304L6.86005 70.7304L7.23505 67.7835L9.35101 67.4035ZM2.29602 68.6744V68.6334L5.86804 67.9945L5.59003 70.1864L2.29602 68.6744ZM11.396 59.1434C11.6737 58.2829 11.6427 57.3525 11.308 56.5125C10.9783 55.7262 10.3531 55.1007 9.56702 54.7705L9.09204 56.4445C9.47204 56.6581 9.76554 56.9975 9.922 57.4044C10.0757 57.8306 10.0852 58.2954 9.94904 58.7274C9.87397 59.0299 9.72587 59.3093 9.5177 59.5411C9.30953 59.773 9.04762 59.9503 8.755 60.0574C8.03168 60.2559 7.26777 60.2521 6.54645 60.0465C5.82512 59.8409 5.17402 59.4414 4.664 58.8914C4.4734 58.648 4.34512 58.3617 4.29022 58.0574C4.23533 57.7532 4.25548 57.4401 4.349 57.1455C4.45913 56.7035 4.72105 56.3142 5.08899 56.0457C5.45693 55.7772 5.90749 55.6465 6.362 55.6765L6.83704 54.0014C5.98286 53.8561 5.10587 54.0542 4.39703 54.5524C3.6525 55.0773 3.12041 55.8513 2.89703 56.7344C2.72378 57.2499 2.66464 57.7969 2.72369 58.3375C2.78275 58.8781 2.95856 59.3995 3.23901 59.8654C3.94275 60.7949 4.92987 61.4702 6.05127 61.7892C7.17267 62.1081 8.36743 62.0535 9.45502 61.6334C9.93909 61.3836 10.363 61.0315 10.6975 60.6016C11.032 60.1716 11.269 59.6741 11.392 59.1434H11.396ZM15.859 47.1014L16.604 45.5014L8.94202 41.9274L8.22101 43.4724L11.786 49.3724L11.757 49.4354L6.56903 47.0154L5.823 48.6154L13.486 52.1895L14.2061 50.6444L10.646 44.7444L10.676 44.6804L15.859 47.1014ZM19.925 35.3015C19.6345 35.0925 19.3005 34.9515 18.9481 34.8892C18.5956 34.8269 18.2337 34.8447 17.889 34.9414C17.1373 35.1669 16.4959 35.6633 16.0891 36.3344L15.178 37.6984L13.75 36.7454L15.889 33.5454L14.675 32.7344L11.554 37.4014L18.585 42.1014L20.512 39.2174C20.9699 38.594 21.1723 37.8192 21.078 37.0515C21.0249 36.6934 20.8942 36.3512 20.695 36.049C20.4958 35.7467 20.2331 35.4916 19.925 35.3015ZM18.397 39.8464L16.297 38.4464L16.997 37.4034C17.2029 37.0478 17.5234 36.7724 17.906 36.6224C18.0775 36.5725 18.2583 36.563 18.4341 36.5947C18.6099 36.6265 18.7758 36.6986 18.919 36.8054C19.0717 36.8949 19.2009 37.0196 19.2958 37.1689C19.3908 37.3183 19.4488 37.4882 19.465 37.6644C19.474 38.0733 19.3439 38.4731 19.096 38.7984L18.397 39.8464ZM20.534 25.3464C20.1413 25.7345 19.8362 26.202 19.6392 26.7178C19.4422 27.2335 19.358 27.7854 19.392 28.3364C19.5832 29.4791 20.1513 30.5249 21.0058 31.3073C21.8603 32.0896 22.952 32.5635 24.107 32.6534C25.2097 32.5701 26.2392 32.0698 26.986 31.2542C27.7328 30.4387 28.1408 29.3692 28.127 28.2634C27.9362 27.1208 27.3684 26.0749 26.514 25.2925C25.6597 24.5102 24.568 24.0362 23.413 23.9464C22.861 23.9606 22.3184 24.0929 21.8218 24.3344C21.3252 24.5758 20.886 24.921 20.534 25.3464ZM21.623 26.3464C21.83 26.1046 22.0918 25.9159 22.3868 25.7961C22.6817 25.6764 23.0011 25.6292 23.3181 25.6585C24.055 25.7884 24.7396 26.1258 25.2915 26.6312C25.8434 27.1365 26.2398 27.7887 26.434 28.5114C26.4776 28.8246 26.4514 29.1436 26.3574 29.4455C26.2635 29.7474 26.104 30.0249 25.8904 30.2581C25.6768 30.4912 25.4144 30.6744 25.1218 30.7944C24.8293 30.9145 24.5138 30.9684 24.198 30.9525C23.4607 30.823 22.7758 30.4852 22.2244 29.9789C21.6729 29.4726 21.2779 28.819 21.086 28.0954C21.0292 27.7822 21.0483 27.4599 21.1417 27.1556C21.2352 26.8513 21.4002 26.5738 21.623 26.3464Z" fill="#F7C7A1"/>
</svg>
