<svg width="34" height="46" viewBox="0 0 34 46" fill="none" xmlns="http://www.w3.org/2000/svg">
<path d="M33.7233 9.73175L24.2788 0.276994C24.1017 0.0997178 23.862 0 23.611 0L3.77772 0C1.69424 0 0 1.69609 0 3.78192L0 41.6009C0 43.6866 1.69424 45.3827 3.77781 45.3827H30.2223C32.3058 45.3827 34 43.6866 34 41.6008V10.4002C34 10.1491 33.9004 9.90903 33.7233 9.73175ZM24.5555 3.22793L30.7756 9.45476H26.4444C25.4031 9.45476 24.5555 8.60622 24.5555 7.56384V3.22793ZM32.1111 41.6008C32.1111 42.6432 31.2635 43.4917 30.2223 43.4917H3.77781C2.73656 43.4917 1.88895 42.6432 1.88895 41.6008L1.88895 3.78192C1.88895 2.73954 2.73656 1.891 3.77781 1.891L22.6667 1.891V7.56384C22.6667 9.64958 24.3609 11.3457 26.4445 11.3457H32.1111V41.6008Z" fill="#F05D5E"/>
<path d="M21.8154 27.7561C20.9411 27.0673 20.1101 26.3592 19.5567 25.8052C18.8373 25.085 18.1963 24.387 17.6393 23.7222C18.5081 21.0344 18.889 19.6486 18.889 18.9098C18.889 15.7715 17.7564 15.1279 16.0557 15.1279C14.7635 15.1279 13.2224 15.8001 13.2224 19.0003C13.2224 20.4112 13.9944 22.124 15.5244 24.1146C15.15 25.2586 14.71 26.578 14.2157 28.0655C13.9777 28.7792 13.7195 29.4402 13.4465 30.0515C13.2242 30.1503 13.0084 30.2509 12.7999 30.3552C12.0492 30.7311 11.3362 31.069 10.6749 31.3829C7.65894 32.8122 5.66675 33.7577 5.66675 35.6246C5.66675 36.9801 7.13787 37.8193 8.50008 37.8193C10.2561 37.8193 12.9078 35.4713 14.8446 31.5158C16.8552 30.7218 19.3548 30.1336 21.3276 29.7652C22.9084 30.9821 24.6543 32.1464 25.5001 32.1464C27.8418 32.1464 28.3334 30.791 28.3334 29.6544C28.3334 27.419 25.7823 27.419 24.5556 27.419C24.1747 27.4191 23.1528 27.5318 21.8154 27.7561ZM8.50008 35.9284C7.96051 35.9284 7.59527 35.6735 7.55561 35.6246C7.55561 34.9542 9.5524 34.007 11.4838 33.0911C11.6064 33.0329 11.731 32.9747 11.8573 32.9147C10.4388 34.9737 9.03594 35.9284 8.50008 35.9284ZM15.1112 19.0003C15.1112 17.0189 15.7255 17.0189 16.0557 17.0189C16.7235 17.0189 17.0002 17.0189 17.0002 18.9098C17.0002 19.3087 16.7345 20.3059 16.2485 21.8626C15.5068 20.7196 15.1112 19.7399 15.1112 19.0003ZM15.8352 29.1623C15.8943 28.998 15.9515 28.8318 16.0068 28.6638C16.3573 27.6112 16.6727 26.6657 16.954 25.8144C17.346 26.2465 17.7684 26.6888 18.2213 27.1421C18.3984 27.3194 18.8374 27.7183 19.4222 28.2177C18.2581 28.4717 17.0195 28.7865 15.8352 29.1623ZM26.4446 29.6545C26.4446 30.0792 26.4446 30.2555 25.5683 30.2611C25.311 30.2057 24.7161 29.8549 23.9819 29.3544C24.2485 29.3249 24.4449 29.3101 24.5556 29.3101C25.9511 29.3101 26.3468 29.4467 26.4446 29.6545Z" fill="#F05D5E"/>
</svg>
